<svg width="242" height="185" viewBox="0 0 242 185" fill="none" xmlns="http://www.w3.org/2000/svg">
<g style="mix-blend-mode:exclusion">
<path d="M13.876 145C16.07 143.358 18.3512 141.639 20.4725 140.058C21.7075 139.122 22.8407 138.247 23.7125 137.556C24.221 137.28 24.8603 136.789 25.3543 136.451C25.0637 136.62 25.1218 136.497 25.3398 136.344C26.8218 135.254 25.3979 136.221 26.8799 135.07C27.679 134.425 29.5969 132.998 31.5584 131.57C34.3335 129.56 37.1377 127.534 38.4599 126.567C38.1984 126.367 38.0385 126.26 37.9078 126.153C37.0651 125.615 36.2368 125.032 35.4232 124.418C35.0164 124.127 34.6096 123.82 34.2028 123.543C34.043 123.436 33.8831 123.313 33.7233 123.206C33.607 123.129 33.5053 123.068 33.389 122.991L33.4908 123.022C32.5899 122.423 27.7517 118.724 26.7201 118.018L26.8508 118.141C25.9209 117.558 26.1244 117.527 25.456 116.99C25.4706 117.174 24.6714 116.698 24.3663 116.499L24.3954 116.483C23.945 116.192 22.8988 115.578 22.1724 115.071L22.245 115.025C21.6057 114.657 20.5015 113.813 20.0656 113.506C19.1066 112.754 17.6683 111.526 16.3025 110.651L15.5905 109.837L15.4598 109.761L12.3505 108.026C11.6385 107.643 12.2487 111.587 12.147 111.603C12.1325 111.326 12.1326 111.065 12.1326 110.973C12.089 111.05 12.089 111.587 12.1326 111.863L12.2488 111.909C12.3214 112.569 12.1906 112.063 12.2342 112.708C12.147 112.754 12.1035 112.155 12.0599 111.633C12.0744 112.094 12.0309 112.569 12.1326 112.754C12.1181 113.199 12.0163 112.708 12.0018 113.245C12.0454 113.613 12.1616 114.104 12.1326 114.549H12.118C12.0745 115.608 12.336 116.146 12.2924 117.113L12.2633 117.005C12.2342 117.343 12.336 118.018 12.3069 118.632C12.3215 118.448 12.3796 118.294 12.4086 118.663C12.3941 119.369 12.4667 119.844 12.4231 120.366L12.5394 120.857C12.6411 123.313 13.2513 132.998 13.3966 135.454L13.3821 135.361C13.4838 137.786 13.6726 141.255 13.876 145Z" fill="#B8B0F2"/>
<path d="M144.806 127.953C144.839 129.675 144.877 131.48 144.903 133.151C144.93 134.125 144.961 135.031 144.989 135.725C144.939 136.085 144.957 136.59 144.949 136.97C144.966 136.757 145.006 136.832 145.007 137.003C145.016 138.169 145.048 137.078 145.085 138.261C145.119 138.908 145.137 140.412 145.148 141.942C145.151 144.098 145.16 146.284 145.169 147.32C145.361 147.26 145.472 147.221 145.568 147.191C146.13 146.953 146.698 146.743 147.283 146.546C147.573 146.443 147.864 146.34 148.138 146.246C148.25 146.208 148.356 146.161 148.468 146.122C148.543 146.092 148.619 146.063 148.682 146.029L148.631 146.067C149.242 145.823 152.746 144.687 153.452 144.413L153.352 144.435C153.962 144.171 153.903 144.288 154.402 144.138C154.305 144.072 154.819 143.838 155.022 143.761L155.023 143.782C155.324 143.662 155.996 143.343 156.492 143.151L156.491 143.205C156.894 143.01 157.698 142.748 158.004 142.637C158.709 142.418 159.811 142.125 160.715 141.745L161.367 141.673L161.454 141.626L163.391 140.657C163.829 140.432 161.684 139.301 161.718 139.25C161.861 139.345 161.991 139.436 162.021 139.474C162.007 139.428 161.737 139.229 161.584 139.151L161.525 139.194C161.182 138.992 161.468 139.106 161.141 138.896C161.15 138.837 161.456 139.027 161.719 139.196C161.488 139.031 161.271 138.836 161.146 138.829C160.934 138.664 161.204 138.787 160.955 138.588C160.75 138.473 160.473 138.354 160.278 138.18L160.285 138.176C159.782 137.77 159.431 137.702 158.974 137.326L159.035 137.346C158.878 137.205 158.52 137.012 158.228 136.772C158.317 136.842 158.362 136.926 158.177 136.81C157.839 136.541 157.573 136.406 157.34 136.199L157.062 136.08C155.828 135.242 150.89 132.019 149.64 131.189L149.694 131.214C148.46 130.397 146.698 129.221 144.806 127.953Z" fill="#B8B0F2"/>
<path d="M204.868 26.4097C204.43 24.3025 203.968 22.0937 203.55 20.0465C203.292 18.8567 203.045 17.7501 202.85 16.9047C202.829 16.4511 202.69 15.8343 202.612 15.3651C202.641 15.6311 202.574 15.5484 202.533 15.3381C202.254 13.9077 202.466 15.2554 202.148 13.8115C201.957 13.0239 201.588 11.18 201.221 9.30359C200.72 6.65525 200.205 3.97231 199.954 2.70139C199.733 2.81934 199.605 2.89235 199.494 2.95132C198.858 3.37436 198.209 3.76282 197.536 4.13992C197.203 4.33306 196.87 4.52621 196.554 4.70529C196.426 4.77833 196.306 4.86056 196.178 4.9336C196.092 4.98769 196.007 5.0418 195.937 5.09805L195.99 5.03964C195.296 5.47946 191.254 7.68419 190.449 8.18298L190.567 8.1332C189.879 8.59843 189.924 8.44055 189.346 8.74029C189.48 8.79917 188.902 9.20542 188.671 9.34662L188.665 9.3212C188.322 9.5376 187.571 10.0845 187.006 10.435L186.994 10.368C186.545 10.7012 185.617 11.2082 185.267 11.4154C184.451 11.8471 183.164 12.4618 182.142 13.1364L181.358 13.3757L181.262 13.453L179.105 15.0904C178.619 15.4679 181.515 16.3631 181.485 16.4329C181.288 16.3492 181.107 16.2676 181.061 16.2287C181.089 16.2817 181.466 16.4632 181.673 16.5236L181.735 16.4582C182.203 16.6272 181.826 16.5522 182.276 16.7353C182.278 16.8094 181.859 16.6468 181.496 16.4999C181.818 16.6495 182.129 16.8386 182.286 16.8185C182.583 16.973 182.224 16.884 182.576 17.0704C182.853 17.1649 183.222 17.2469 183.502 17.4154L183.493 17.4225C184.205 17.8044 184.652 17.807 185.301 18.164L185.22 18.1532C185.446 18.2899 185.931 18.4449 186.345 18.6723C186.219 18.6064 186.145 18.5146 186.398 18.6139C186.875 18.8662 187.234 18.9715 187.568 19.1719L187.937 19.2539C189.646 19.9987 196.456 22.8186 198.183 23.5493L198.112 23.5315C199.815 24.2509 202.251 25.2895 204.868 26.4097Z" fill="#6E5DE7"/>
<path d="M127.481 39.2525C128.452 36.8595 129.467 34.3487 130.418 32.0287C130.957 30.6709 131.45 29.4026 131.821 28.4299C132.102 27.9634 132.376 27.2557 132.612 26.7363C132.462 27.0202 132.451 26.8931 132.551 26.6564C133.229 25.0441 132.54 26.5293 133.187 24.8771C133.523 23.9645 134.387 21.88 135.276 19.7649C136.545 16.79 137.825 13.7716 138.424 12.3372C138.125 12.3071 137.948 12.2944 137.799 12.2793C136.882 12.276 135.975 12.2291 135.052 12.1552C134.591 12.1253 134.131 12.0954 133.697 12.0631C133.52 12.0505 133.345 12.0519 133.169 12.0392C133.047 12.0359 132.926 12.0325 132.819 12.0421L132.911 12.0196C131.925 11.9941 126.423 11.4905 125.287 11.4498L125.438 11.479C124.441 11.4829 124.591 11.3556 123.815 11.2685C123.91 11.4166 123.062 11.4356 122.738 11.422L122.749 11.3925C122.262 11.3791 121.148 11.422 120.35 11.3938L120.384 11.3196C119.713 11.3512 118.45 11.2366 117.962 11.2091C116.86 11.0943 115.167 10.8474 113.697 10.8367L112.755 10.5509L112.608 10.5641L109.365 10.755C108.628 10.8067 110.916 13.6338 110.84 13.6833C110.699 13.4681 110.573 13.2659 110.553 13.1965C110.546 13.2683 110.801 13.701 110.967 13.8997L111.072 13.8759C111.425 14.3568 111.1 14.0301 111.426 14.5133C111.379 14.5887 111.07 14.1467 110.806 13.7575C111.027 14.122 111.211 14.5183 111.38 14.6028C111.573 14.9556 111.274 14.6265 111.501 15.0475C111.715 15.3273 112.027 15.6552 112.193 16.0104L112.18 16.0116C112.634 16.8677 113.079 17.1695 113.486 17.9586L113.413 17.8939C113.547 18.1809 113.926 18.6593 114.187 19.1627C114.106 19.0133 114.094 18.8721 114.279 19.1402C114.587 19.7105 114.873 20.0549 115.073 20.4783L115.385 20.8062C116.592 22.6909 121.496 30.0522 122.729 31.9345L122.669 31.8687C123.886 33.7241 125.621 36.3871 127.481 39.2525Z" fill="#6E5DE7"/>
<path d="M99.6221 131.37C100.399 129.456 101.211 127.447 101.972 125.591C102.403 124.505 102.797 123.49 103.094 122.712C103.319 122.339 103.538 121.773 103.727 121.357C103.607 121.584 103.598 121.483 103.678 121.293C104.22 120.004 103.669 121.192 104.187 119.87C104.456 119.14 105.147 117.472 105.858 115.78C106.874 113.4 107.897 110.986 108.377 109.838C108.137 109.814 107.996 109.804 107.877 109.792C107.143 109.789 106.418 109.752 105.679 109.693C105.311 109.669 104.942 109.645 104.595 109.619C104.454 109.609 104.314 109.61 104.173 109.6C104.075 109.597 103.978 109.594 103.892 109.602L103.966 109.584C103.178 109.564 98.7755 109.161 97.8671 109.128L97.9877 109.152C97.1903 109.155 97.3105 109.053 96.6898 108.983C96.7651 109.102 96.0873 109.117 95.8276 109.106L95.8363 109.082C95.4473 109.072 94.5556 109.106 93.9176 109.083L93.9446 109.024C93.4078 109.049 92.3971 108.958 92.0071 108.936C91.1256 108.844 89.7712 108.646 88.5954 108.638L87.8419 108.409L87.7243 108.42L85.1292 108.572C84.54 108.614 86.3703 110.875 86.3092 110.915C86.1967 110.743 86.096 110.581 86.0803 110.526C86.0746 110.583 86.2781 110.929 86.4109 111.088L86.4955 111.069C86.7779 111.454 86.5173 111.192 86.7783 111.579C86.7406 111.639 86.4933 111.286 86.2822 110.974C86.4592 111.266 86.6062 111.583 86.7416 111.651C86.8963 111.933 86.6571 111.67 86.8382 112.006C87.0091 112.23 87.259 112.492 87.3923 112.777L87.3816 112.778C87.7447 113.462 88.1005 113.704 88.4266 114.335L88.368 114.283C88.4748 114.513 88.7786 114.896 88.9872 115.298C88.9226 115.179 88.9124 115.066 89.061 115.28C89.3067 115.737 89.5362 116.012 89.6959 116.351L89.9458 116.613C90.9109 118.121 94.834 124.01 95.8205 125.516L95.7727 125.463C96.7465 126.948 98.1339 129.078 99.6221 131.37Z" fill="#6E5DE7"/>
<path d="M87.7044 72.9983C87.8939 71.1174 88.0896 69.1448 88.2798 67.3194C88.3785 66.2547 88.4634 65.2624 88.5237 64.5027C88.6254 64.1171 88.6717 63.5637 88.7308 63.1501C88.6841 63.3804 88.65 63.2934 88.6715 63.1066C88.8154 61.8346 88.6374 63.0196 88.7515 61.7259C88.7996 61.0157 88.9773 59.3735 89.1659 57.7049C89.445 55.3539 89.7219 52.9703 89.8474 51.8393C89.631 51.8798 89.5046 51.9072 89.3964 51.9274C88.7519 52.1138 88.1052 52.2677 87.4417 52.4059C87.1118 52.4798 86.782 52.5537 86.4705 52.6205C86.344 52.6479 86.2213 52.6849 86.0949 52.7124C86.0088 52.735 85.9227 52.7577 85.8496 52.7865L85.9098 52.7517C85.212 52.9368 81.2433 53.7164 80.4373 53.9217L80.5493 53.9111C79.8499 54.1191 79.9293 53.9988 79.3664 54.0974C79.463 54.1821 78.8718 54.3699 78.641 54.4272L78.6425 54.4042C78.2982 54.495 77.5242 54.7547 76.9582 54.8991L76.9666 54.8401C76.5019 55.0005 75.5908 55.1802 75.2427 55.2613C74.4452 55.4075 73.2051 55.5828 72.1706 55.878L71.4502 55.8713L71.3496 55.9108L69.1105 56.713C68.6038 56.901 70.7931 58.4155 70.7496 58.466C70.6066 58.3438 70.4765 58.2277 70.4483 58.183C70.4582 58.2349 70.726 58.4864 70.8835 58.5918L70.9529 58.5534C71.2998 58.8184 71.0037 58.656 71.3324 58.9282C71.3148 58.9909 71.0067 58.7441 70.7412 58.5251C70.9717 58.7355 71.1823 58.9761 71.3186 59.0005C71.5271 59.2085 71.2493 59.039 71.495 59.288C71.7027 59.4405 71.9897 59.6065 72.1798 59.8217L72.1706 59.8253C72.6658 60.3331 73.0404 60.4535 73.4891 60.9238L73.4245 60.8935C73.5773 61.0675 73.9426 61.3254 74.2293 61.6252C74.1419 61.537 74.1039 61.4404 74.2896 61.5904C74.6227 61.9278 74.8952 62.1106 75.1226 62.3669L75.4095 62.5328C76.6451 63.6082 81.6056 67.7687 82.8595 68.8369L82.8039 68.803C84.041 69.8555 85.8077 71.3688 87.7044 72.9983Z" fill="#B8B0F2"/>
<path d="M81.7044 179.998C81.8939 178.117 82.0896 176.145 82.2798 174.319C82.3785 173.255 82.4634 172.262 82.5237 171.503C82.6254 171.117 82.6717 170.564 82.7308 170.15C82.6841 170.38 82.65 170.293 82.6715 170.107C82.8154 168.835 82.6374 170.02 82.7515 168.726C82.7996 168.016 82.9773 166.374 83.1659 164.705C83.445 162.354 83.7219 159.97 83.8474 158.839C83.631 158.88 83.5046 158.907 83.3964 158.927C82.7519 159.114 82.1052 159.268 81.4417 159.406C81.1118 159.48 80.782 159.554 80.4705 159.62C80.344 159.648 80.2213 159.685 80.0949 159.712C80.0088 159.735 79.9227 159.758 79.8496 159.786L79.9098 159.752C79.212 159.937 75.2433 160.716 74.4373 160.922L74.5493 160.911C73.8499 161.119 73.9293 160.999 73.3664 161.097C73.463 161.182 72.8718 161.37 72.641 161.427L72.6425 161.404C72.2982 161.495 71.5242 161.755 70.9582 161.899L70.9666 161.84C70.5019 162 69.5908 162.18 69.2427 162.261C68.4452 162.408 67.2051 162.583 66.1706 162.878L65.4502 162.871L65.3496 162.911L63.1105 163.713C62.6038 163.901 64.7931 165.415 64.7496 165.466C64.6066 165.344 64.4765 165.228 64.4483 165.183C64.4582 165.235 64.726 165.486 64.8835 165.592L64.9529 165.553C65.2998 165.818 65.0037 165.656 65.3324 165.928C65.3148 165.991 65.0067 165.744 64.7412 165.525C64.9717 165.736 65.1823 165.976 65.3186 166.001C65.5271 166.209 65.2493 166.039 65.495 166.288C65.7027 166.441 65.9897 166.607 66.1798 166.822L66.1706 166.825C66.6658 167.333 67.0404 167.453 67.4891 167.924L67.4245 167.893C67.5773 168.068 67.9426 168.325 68.2293 168.625C68.1419 168.537 68.1039 168.44 68.2896 168.59C68.6227 168.928 68.8952 169.111 69.1226 169.367L69.4095 169.533C70.6451 170.608 75.6056 174.769 76.8595 175.837L76.8039 175.803C78.041 176.855 79.8077 178.369 81.7044 179.998Z" fill="#6E5DE7"/>
<path d="M178.513 76.6768C177.139 74.3891 175.695 71.9988 174.362 69.7845C173.571 68.494 172.835 67.3062 172.252 66.397C172.03 65.8691 171.614 65.2092 171.336 64.6813C171.475 64.9892 171.364 64.9159 171.239 64.6959C170.323 63.1415 171.128 64.6226 170.17 63.0829C169.629 62.247 168.435 60.2526 167.241 58.1996C165.561 55.3107 163.854 52.3925 163.048 50.9994C162.854 51.2487 162.743 51.3953 162.646 51.5273C162.118 52.3632 161.549 53.1551 160.966 53.9469C160.675 54.3429 160.397 54.7388 160.105 55.1347C159.994 55.2961 159.883 55.4427 159.786 55.5893C159.717 55.692 159.647 55.8093 159.578 55.912L159.619 55.8093C159.036 56.6892 155.455 61.3964 154.775 62.3936L154.886 62.2763C154.316 63.1855 154.303 62.9802 153.775 63.6255C153.942 63.6255 153.47 64.4027 153.275 64.6959L153.261 64.6666C152.97 65.1065 152.373 66.133 151.873 66.8369L151.832 66.7636C151.471 67.3942 150.652 68.4647 150.346 68.89C149.624 69.8285 148.444 71.2069 147.598 72.5561L146.82 73.2453L146.751 73.3773L145.029 76.4275C144.641 77.1314 148.25 76.7061 148.25 76.7941C148 76.7941 147.75 76.7941 147.681 76.7794C147.736 76.8234 148.222 76.8528 148.486 76.8234L148.528 76.7061C149.125 76.6621 148.666 76.7794 149.25 76.7648C149.277 76.8527 148.75 76.8821 148.278 76.8821C148.694 76.8821 149.125 76.9554 149.291 76.8527C149.694 76.8821 149.249 76.9701 149.721 76.9994C150.055 76.9701 150.513 76.8821 150.901 76.9407L150.888 76.9554C151.845 77.0434 152.345 76.8087 153.22 76.8967L153.123 76.9261C153.428 76.9847 154.039 76.9114 154.594 76.9554C154.441 76.9407 154.303 76.8674 154.636 76.8527C155.274 76.9114 155.705 76.8527 156.177 76.9114L156.621 76.8234C158.842 76.8381 167.616 76.6914 169.851 76.6621L169.767 76.6768C171.975 76.7208 175.126 76.7061 178.513 76.6768Z" fill="#B8B0F2"/>
<path d="M197.525 119.824C197.795 117.61 198.072 115.294 198.332 113.15C198.474 111.893 198.6 110.733 198.683 109.834C198.808 109.372 198.872 108.724 198.961 108.233C198.894 108.507 198.858 108.402 198.889 108.193C199.084 106.698 198.854 108.088 199.014 106.581C199.087 105.752 199.325 103.825 199.594 101.859C199.971 99.0924 200.346 96.2925 200.532 94.961C200.275 95.0254 200.127 95.0649 199.995 95.1019C199.218 95.3815 198.436 95.6107 197.645 95.8328C197.25 95.9438 196.863 96.062 196.468 96.173C196.312 96.2222 196.163 96.2617 196.024 96.3084C195.925 96.3404 195.819 96.382 195.721 96.414L195.801 96.3677C194.965 96.6478 190.186 97.9084 189.226 98.2158L189.359 98.1956C188.517 98.5021 188.613 98.3597 187.934 98.5137C188.044 98.5993 187.334 98.8688 187.055 98.9621L187.061 98.9356C186.643 99.0757 185.722 99.4452 185.031 99.6521L185.041 99.5824C184.48 99.8123 183.39 100.097 182.97 100.22C182.012 100.467 180.527 100.769 179.276 101.223L178.409 101.277L178.296 101.328L175.594 102.453C174.977 102.717 177.573 104.292 177.528 104.35C177.363 104.221 177.199 104.093 177.16 104.048C177.174 104.105 177.479 104.374 177.668 104.49L177.756 104.435C178.172 104.712 177.81 104.554 178.201 104.844C178.174 104.916 177.812 104.665 177.501 104.422C177.775 104.636 178.021 104.906 178.183 104.924C178.434 105.15 178.096 104.979 178.392 105.241C178.626 105.393 178.973 105.571 179.199 105.809L179.182 105.812C179.768 106.362 180.218 106.464 180.749 106.971L180.67 106.941C180.841 107.136 181.281 107.402 181.624 107.716C181.531 107.628 181.477 107.508 181.704 107.67C182.095 108.037 182.409 108.219 182.689 108.5L183.027 108.671C184.483 109.822 190.338 114.233 191.826 115.363L191.763 115.33C193.195 116.493 195.278 118.102 197.525 119.824Z" fill="#6E5DE7"/>
<path d="M44.7089 28.0283C41.5433 28.3504 38.2318 28.6954 35.1664 29.0098C33.3726 29.2088 31.7177 29.3999 30.4409 29.5676C29.7586 29.5394 28.8352 29.654 28.1247 29.6857C28.5274 29.6922 28.392 29.7748 28.0913 29.798C25.9492 29.9979 27.9558 29.8806 25.8085 30.1328C24.6319 30.2929 21.8743 30.5691 19.0534 30.8156C15.0841 31.1622 11.0692 31.5238 9.1575 31.6857C9.32787 32.0219 9.42972 32.2162 9.52282 32.388C10.157 33.3813 10.7227 34.3971 11.2812 35.428C11.5605 35.9434 11.8469 36.4439 12.1261 36.9593C12.2438 37.161 12.3457 37.3553 12.4546 37.5345C12.5301 37.6615 12.6215 37.7959 12.6971 37.9228L12.6074 37.8259C13.2609 38.9014 16.5226 45.1542 17.2534 46.3941L17.1832 46.2147C17.8754 47.2901 17.6468 47.201 18.0754 48.0976C18.1599 47.9178 18.759 48.8214 18.9768 49.1799L18.9381 49.18C19.2649 49.7178 20.0695 50.8827 20.5755 51.7791L20.4752 51.7868C20.9725 52.4961 21.7119 53.923 22.0158 54.4683C22.6622 55.7234 23.5508 57.6959 24.5768 59.2941L24.926 60.4826L25.0331 60.6245L27.4508 64.0295C28.013 64.806 29.3855 60.6959 29.4804 60.7405C29.3537 61.0101 29.2269 61.2797 29.1758 61.3471C29.2515 61.3095 29.5296 60.8002 29.6318 60.5008L29.5264 60.3963C29.7818 59.7299 29.676 60.2837 29.956 59.6471C30.065 59.6618 29.829 60.2459 29.5895 60.7552C29.8008 60.3058 30.0982 59.8787 30.072 59.6469C30.3079 59.2274 30.1775 59.7514 30.4486 59.257C30.586 58.8826 30.7235 58.3436 30.984 57.954L30.9928 57.9764C31.5737 56.9876 31.5741 56.3293 32.1128 55.4303L32.0952 55.5501C32.3134 55.2503 32.5442 54.5541 32.8734 53.9773C32.7801 54.1346 32.6306 54.2471 32.7838 53.8802C33.1711 53.2209 33.3262 52.7269 33.629 52.2474L33.7594 51.7234C34.9022 49.3343 39.1955 39.7937 40.2979 37.3673L40.2715 37.4646C41.4389 35.1054 43.0219 31.6979 44.7089 28.0283Z" fill="#6E5DE7"/>
<path d="M240.709 52.0283C237.543 52.3504 234.232 52.6954 231.166 53.0098C229.373 53.2088 227.718 53.3999 226.441 53.5676C225.759 53.5394 224.835 53.654 224.125 53.6857C224.527 53.6922 224.392 53.7748 224.091 53.798C221.949 53.9979 223.956 53.8806 221.808 54.1328C220.632 54.2929 217.874 54.5691 215.053 54.8156C211.084 55.1622 207.069 55.5238 205.158 55.6857C205.328 56.0219 205.43 56.2162 205.523 56.388C206.157 57.3813 206.723 58.3971 207.281 59.428C207.561 59.9434 207.847 60.4439 208.126 60.9593C208.244 61.161 208.346 61.3553 208.455 61.5345C208.53 61.6615 208.622 61.7959 208.697 61.9228L208.607 61.8259C209.261 62.9014 212.523 69.1542 213.253 70.3941L213.183 70.2147C213.875 71.2901 213.647 71.201 214.075 72.0976C214.16 71.9178 214.759 72.8214 214.977 73.1799L214.938 73.18C215.265 73.7178 216.07 74.8827 216.575 75.7791L216.475 75.7868C216.972 76.4961 217.712 77.923 218.016 78.4683C218.662 79.7234 219.551 81.6959 220.577 83.2941L220.926 84.4826L221.033 84.6245L223.451 88.0295C224.013 88.806 225.386 84.6959 225.48 84.7405C225.354 85.0101 225.227 85.2797 225.176 85.3471C225.251 85.3095 225.53 84.8002 225.632 84.5008L225.526 84.3963C225.782 83.7299 225.676 84.2837 225.956 83.6471C226.065 83.6618 225.829 84.2459 225.589 84.7552C225.801 84.3058 226.098 83.8787 226.072 83.6469C226.308 83.2274 226.177 83.7514 226.449 83.257C226.586 82.8826 226.724 82.3436 226.984 81.954L226.993 81.9764C227.574 80.9876 227.574 80.3293 228.113 79.4303L228.095 79.5501C228.313 79.2503 228.544 78.5541 228.873 77.9773C228.78 78.1346 228.631 78.2471 228.784 77.8802C229.171 77.2209 229.326 76.7269 229.629 76.2474L229.759 75.7234C230.902 73.3343 235.196 63.7937 236.298 61.3673L236.271 61.4646C237.439 59.1054 239.022 55.6979 240.709 52.0283Z" fill="#B8B0F2"/>
</g>
</svg>
