<svg width="375" height="422" viewBox="0 0 375 422" fill="none" xmlns="http://www.w3.org/2000/svg">
<path d="M-229 150.977C-229 150.977 10.0321 192.247 -29.1122 150.977C-68.2566 109.707 194.283 195.417 158.923 150.977C123.564 106.538 491.189 208.095 447.79 150.977C404.39 93.8592 784.937 204.925 751.644 150.977C718.352 97.0287 919 150.977 919 150.977" stroke="#F4F2FF" stroke-opacity="0.5"/>
<path d="M-229 129.977C-229 129.977 10.0321 171.247 -29.1122 129.977C-68.2566 88.7071 194.283 174.417 158.923 129.977C123.564 85.5375 491.189 187.095 447.79 129.977C404.39 72.8592 784.937 183.925 751.644 129.977C718.352 76.0287 919 129.977 919 129.977" stroke="#F4F2FF" stroke-opacity="0.5"/>
<path d="M-229 276.977C-229 276.977 10.0321 318.247 -29.1122 276.977C-68.2566 235.707 194.283 321.417 158.923 276.977C123.564 232.538 491.189 334.095 447.79 276.977C404.39 219.859 784.937 330.925 751.644 276.977C718.352 223.029 919 276.977 919 276.977" stroke="#F4F2FF" stroke-opacity="0.5"/>
<path d="M-229 402.977C-229 402.977 10.0321 444.247 -29.1122 402.977C-68.2566 361.707 194.283 447.417 158.923 402.977C123.564 358.538 491.189 460.095 447.79 402.977C404.39 345.859 784.937 456.925 751.644 402.977C718.352 349.029 919 402.977 919 402.977" stroke="#F4F2FF" stroke-opacity="0.5"/>
<path d="M-229 108.977C-229 108.977 10.0321 150.247 -29.1122 108.977C-68.2566 67.7071 194.283 153.417 158.923 108.977C123.564 64.5375 491.189 166.095 447.79 108.977C404.39 51.8592 784.937 162.925 751.644 108.977C718.352 55.0287 919 108.977 919 108.977" stroke="#F4F2FF" stroke-opacity="0.5"/>
<path d="M-229 255.977C-229 255.977 10.0321 297.247 -29.1122 255.977C-68.2566 214.707 194.283 300.417 158.923 255.977C123.564 211.538 491.189 313.095 447.79 255.977C404.39 198.859 784.937 309.925 751.644 255.977C718.352 202.029 919 255.977 919 255.977" stroke="#F4F2FF" stroke-opacity="0.5"/>
<path d="M-229 381.977C-229 381.977 10.0321 423.247 -29.1122 381.977C-68.2566 340.707 194.283 426.417 158.923 381.977C123.564 337.538 491.189 439.095 447.79 381.977C404.39 324.859 784.937 435.925 751.644 381.977C718.352 328.029 919 381.977 919 381.977" stroke="#F4F2FF" stroke-opacity="0.5"/>
<path d="M-229 87.977C-229 87.977 10.0321 129.247 -29.1122 87.977C-68.2566 46.7071 194.283 132.417 158.923 87.977C123.564 43.5375 491.189 145.095 447.79 87.977C404.39 30.8592 784.937 141.925 751.644 87.977C718.352 34.0287 919 87.977 919 87.977" stroke="#F4F2FF" stroke-opacity="0.5"/>
<path d="M-229 234.977C-229 234.977 10.0321 276.247 -29.1122 234.977C-68.2566 193.707 194.283 279.417 158.923 234.977C123.564 190.538 491.189 292.095 447.79 234.977C404.39 177.859 784.937 288.925 751.644 234.977C718.352 181.029 919 234.977 919 234.977" stroke="#F4F2FF" stroke-opacity="0.5"/>
<path d="M-229 360.977C-229 360.977 10.0321 402.247 -29.1122 360.977C-68.2566 319.707 194.283 405.417 158.923 360.977C123.564 316.538 491.189 418.095 447.79 360.977C404.39 303.859 784.937 414.925 751.644 360.977C718.352 307.029 919 360.977 919 360.977" stroke="#F4F2FF" stroke-opacity="0.5"/>
<path d="M-229 66.977C-229 66.977 10.0321 108.247 -29.1122 66.977C-68.2566 25.7071 194.283 111.417 158.923 66.977C123.564 22.5375 491.189 124.095 447.79 66.977C404.39 9.85915 784.937 120.925 751.644 66.977C718.352 13.0287 919 66.977 919 66.977" stroke="#F4F2FF" stroke-opacity="0.5"/>
<path d="M-229 213.977C-229 213.977 10.0321 255.247 -29.1122 213.977C-68.2566 172.707 194.283 258.417 158.923 213.977C123.564 169.538 491.189 271.095 447.79 213.977C404.39 156.859 784.937 267.925 751.644 213.977C718.352 160.029 919 213.977 919 213.977" stroke="#F4F2FF" stroke-opacity="0.5"/>
<path d="M-229 339.977C-229 339.977 10.0321 381.247 -29.1122 339.977C-68.2566 298.707 194.283 384.417 158.923 339.977C123.564 295.538 491.189 397.095 447.79 339.977C404.39 282.859 784.937 393.925 751.644 339.977C718.352 286.029 919 339.977 919 339.977" stroke="#F4F2FF" stroke-opacity="0.5"/>
<path d="M-229 45.977C-229 45.977 10.0321 87.2469 -29.1122 45.977C-68.2566 4.7071 194.283 90.4165 158.923 45.977C123.564 1.53751 491.189 103.095 447.79 45.977C404.39 -11.1408 784.937 99.9253 751.644 45.977C718.352 -7.97126 919 45.977 919 45.977" stroke="#F4F2FF" stroke-opacity="0.5"/>
<path d="M-229 192.977C-229 192.977 10.0321 234.247 -29.1122 192.977C-68.2566 151.707 194.283 237.417 158.923 192.977C123.564 148.538 491.189 250.095 447.79 192.977C404.39 135.859 784.937 246.925 751.644 192.977C718.352 139.029 919 192.977 919 192.977" stroke="#F4F2FF" stroke-opacity="0.5"/>
<path d="M-229 318.977C-229 318.977 10.0321 360.247 -29.1122 318.977C-68.2566 277.707 194.283 363.417 158.923 318.977C123.564 274.538 491.189 376.095 447.79 318.977C404.39 261.859 784.937 372.925 751.644 318.977C718.352 265.029 919 318.977 919 318.977" stroke="#F4F2FF" stroke-opacity="0.5"/>
<path d="M-229 24.977C-229 24.977 10.0321 66.2469 -29.1122 24.977C-68.2566 -16.2929 194.283 69.4165 158.923 24.977C123.564 -19.4625 491.189 82.0949 447.79 24.977C404.39 -32.1408 784.937 78.9253 751.644 24.977C718.352 -28.9713 919 24.977 919 24.977" stroke="#F4F2FF" stroke-opacity="0.5"/>
<path d="M-229 171.977C-229 171.977 10.0321 213.247 -29.1122 171.977C-68.2566 130.707 194.283 216.417 158.923 171.977C123.564 127.538 491.189 229.095 447.79 171.977C404.39 114.859 784.937 225.925 751.644 171.977C718.352 118.029 919 171.977 919 171.977" stroke="#F4F2FF" stroke-opacity="0.5"/>
<path d="M-229 297.977C-229 297.977 10.0321 339.247 -29.1122 297.977C-68.2566 256.707 194.283 342.417 158.923 297.977C123.564 253.538 491.189 355.095 447.79 297.977C404.39 240.859 784.937 351.925 751.644 297.977C718.352 244.029 919 297.977 919 297.977" stroke="#F4F2FF" stroke-opacity="0.5"/>
</svg>
