<svg width="1440" height="731" viewBox="0 0 1440 731" fill="none" xmlns="http://www.w3.org/2000/svg">
<path d="M-122.106 344.294C-122.106 344.294 228.169 385.564 170.807 344.294C113.445 303.024 498.167 388.733 446.352 344.294C394.537 299.854 933.25 401.412 869.653 344.294C806.056 287.176 1363.7 398.242 1314.92 344.294C1266.13 290.346 1560.16 344.294 1560.16 344.294" stroke="#F4F2FF"/>
<path d="M-119.186 323.137C-119.186 323.137 231.089 364.407 173.727 323.137C116.366 281.867 501.087 367.576 449.272 323.137C397.458 278.697 936.171 380.255 872.574 323.137C808.977 266.019 1366.63 377.085 1317.84 323.137C1269.05 269.188 1563.08 323.137 1563.08 323.137" stroke="#F4F2FF"/>
<path d="M-116.264 301.977C-116.264 301.977 234.01 343.247 176.649 301.977C119.287 260.707 504.009 346.417 452.194 301.977C400.379 257.538 939.092 359.095 875.495 301.977C811.898 244.859 1369.55 355.925 1320.76 301.977C1271.97 248.029 1566 301.977 1566 301.977" stroke="#F4F2FF"/>
<path d="M-116.264 280.977C-116.264 280.977 234.01 322.247 176.649 280.977C119.287 239.707 504.009 325.417 452.194 280.977C400.379 236.538 939.092 338.095 875.495 280.977C811.898 223.859 1369.55 334.925 1320.76 280.977C1271.97 227.029 1566 280.977 1566 280.977" stroke="#F4F2FF"/>
<path d="M-116.264 259.977C-116.264 259.977 234.01 301.247 176.649 259.977C119.287 218.707 504.009 304.417 452.194 259.977C400.379 215.538 939.092 317.095 875.495 259.977C811.898 202.859 1369.55 313.925 1320.76 259.977C1271.97 206.029 1566 259.977 1566 259.977" stroke="#F4F2FF"/>
<path d="M-116.264 238.977C-116.264 238.977 234.01 280.247 176.649 238.977C119.287 197.707 504.009 283.417 452.194 238.977C400.379 194.538 939.092 296.095 875.495 238.977C811.898 181.859 1369.55 292.925 1320.76 238.977C1271.97 185.029 1566 238.977 1566 238.977" stroke="#F4F2FF"/>
<path d="M-116.264 217.977C-116.264 217.977 234.01 259.247 176.649 217.977C119.287 176.707 504.009 262.417 452.194 217.977C400.379 173.538 939.092 275.095 875.495 217.977C811.898 160.859 1369.55 271.925 1320.76 217.977C1271.97 164.029 1566 217.977 1566 217.977" stroke="#F4F2FF"/>
<path d="M-116.264 196.977C-116.264 196.977 234.01 238.247 176.649 196.977C119.287 155.707 504.009 241.417 452.194 196.977C400.379 152.538 939.092 254.095 875.495 196.977C811.898 139.859 1369.55 250.925 1320.76 196.977C1271.97 143.029 1566 196.977 1566 196.977" stroke="#F4F2FF"/>
<path d="M-116.264 175.977C-116.264 175.977 234.01 217.247 176.649 175.977C119.287 134.707 504.009 220.417 452.194 175.977C400.379 131.538 939.092 233.095 875.495 175.977C811.898 118.859 1369.55 229.925 1320.76 175.977C1271.97 122.029 1566 175.977 1566 175.977" stroke="#F4F2FF"/>
<path d="M-116.264 154.977C-116.264 154.977 234.01 196.247 176.649 154.977C119.287 113.707 504.009 199.417 452.194 154.977C400.379 110.538 939.092 212.095 875.495 154.977C811.898 97.8592 1369.55 208.925 1320.76 154.977C1271.97 101.029 1566 154.977 1566 154.977" stroke="#F4F2FF"/>
<path d="M-116.264 133.977C-116.264 133.977 234.01 175.247 176.649 133.977C119.287 92.7071 504.009 178.417 452.194 133.977C400.379 89.5375 939.092 191.095 875.495 133.977C811.898 76.8592 1369.55 187.925 1320.76 133.977C1271.97 80.0287 1566 133.977 1566 133.977" stroke="#F4F2FF"/>
<path d="M-116.264 112.977C-116.264 112.977 234.01 154.247 176.649 112.977C119.287 71.7071 504.009 157.417 452.194 112.977C400.379 68.5375 939.092 170.095 875.495 112.977C811.898 55.8592 1369.55 166.925 1320.76 112.977C1271.97 59.0287 1566 112.977 1566 112.977" stroke="#F4F2FF"/>
<path d="M-116.264 91.977C-116.264 91.977 234.01 133.247 176.649 91.977C119.287 50.7071 504.009 136.417 452.194 91.977C400.379 47.5375 939.092 149.095 875.495 91.977C811.898 34.8592 1369.55 145.925 1320.76 91.977C1271.97 38.0287 1566 91.977 1566 91.977" stroke="#F4F2FF"/>
<path d="M-116.264 70.977C-116.264 70.977 234.01 112.247 176.649 70.977C119.287 29.7071 504.009 115.417 452.194 70.977C400.379 26.5375 939.092 128.095 875.495 70.977C811.898 13.8592 1369.55 124.925 1320.76 70.977C1271.97 17.0287 1566 70.977 1566 70.977" stroke="#F4F2FF"/>
<path d="M-116.264 49.977C-116.264 49.977 234.01 91.2469 176.649 49.977C119.287 8.7071 504.009 94.4165 452.194 49.977C400.379 5.53751 939.092 107.095 875.495 49.977C811.898 -7.14085 1369.55 103.925 1320.76 49.977C1271.97 -3.97126 1566 49.977 1566 49.977" stroke="#F4F2FF"/>
<path d="M-116.264 28.977C-116.264 28.977 234.01 70.2469 176.649 28.977C119.287 -12.2929 504.009 73.4165 452.194 28.977C400.379 -15.4625 939.092 86.0949 875.495 28.977C811.898 -28.1408 1369.55 82.9253 1320.76 28.977C1271.97 -24.9713 1566 28.977 1566 28.977" stroke="#F4F2FF"/>
<path d="M-116.264 7.97701C-116.264 7.97701 234.01 49.2469 176.649 7.97701C119.287 -33.2929 504.009 52.4165 452.194 7.97701C400.379 -36.4625 939.092 65.0949 875.495 7.97701C811.898 -49.1408 1369.55 61.9253 1320.76 7.97701C1271.97 -45.9713 1566 7.97701 1566 7.97701" stroke="#F4F2FF"/>
<path d="M-123.08 365.454C-123.08 365.454 227.195 406.723 169.833 365.454C112.472 324.184 497.193 409.893 445.378 365.454C393.563 321.014 932.277 422.571 868.68 365.454C805.083 308.336 1362.73 419.402 1313.94 365.454C1265.16 311.505 1559.19 365.454 1559.19 365.454" stroke="#F4F2FF"/>
<path d="M-124.053 386.613C-124.053 386.613 226.222 427.883 168.86 386.613C111.499 345.343 496.22 431.053 444.405 386.613C392.59 342.174 931.303 443.731 867.706 386.613C804.109 329.495 1361.76 440.562 1312.97 386.613C1264.18 332.665 1558.21 386.613 1558.21 386.613" stroke="#F4F2FF"/>
<path d="M-125.026 407.773C-125.026 407.773 225.248 449.043 167.887 407.773C110.525 366.503 495.247 452.212 443.432 407.773C391.617 363.333 930.33 464.891 866.733 407.773C803.136 350.655 1360.78 461.721 1312 407.773C1263.21 353.825 1557.24 407.773 1557.24 407.773" stroke="#F4F2FF"/>
<path d="M-125 428.933C-125 428.933 225.275 470.202 167.913 428.933C110.551 387.663 495.273 473.372 443.458 428.933C391.643 384.493 930.356 486.05 866.759 428.933C803.162 371.815 1360.81 482.881 1312.02 428.933C1263.24 374.984 1557.26 428.933 1557.26 428.933" stroke="#F4F2FF"/>
<path d="M-125 449.933C-125 449.933 225.275 491.202 167.913 449.933C110.551 408.663 495.273 494.372 443.458 449.933C391.643 405.493 930.356 507.05 866.759 449.933C803.162 392.815 1360.81 503.881 1312.02 449.933C1263.24 395.984 1557.26 449.933 1557.26 449.933" stroke="#F4F2FF"/>
<path d="M-125 470.933C-125 470.933 225.275 512.202 167.913 470.933C110.551 429.663 495.273 515.372 443.458 470.933C391.643 426.493 930.356 528.05 866.759 470.933C803.162 413.815 1360.81 524.881 1312.02 470.933C1263.24 416.984 1557.26 470.933 1557.26 470.933" stroke="#F4F2FF"/>
<path d="M-125 491.933C-125 491.933 225.275 533.202 167.913 491.933C110.551 450.663 495.273 536.372 443.458 491.933C391.643 447.493 930.356 549.05 866.759 491.933C803.162 434.815 1360.81 545.881 1312.02 491.933C1263.24 437.984 1557.26 491.933 1557.26 491.933" stroke="#F4F2FF"/>
<path d="M-125 512.933C-125 512.933 225.275 554.202 167.913 512.933C110.551 471.663 495.273 557.372 443.458 512.933C391.643 468.493 930.356 570.05 866.759 512.933C803.162 455.815 1360.81 566.881 1312.02 512.933C1263.24 458.984 1557.26 512.933 1557.26 512.933" stroke="#F4F2FF"/>
<path d="M-125 533.933C-125 533.933 225.275 575.202 167.913 533.933C110.551 492.663 495.273 578.372 443.458 533.933C391.643 489.493 930.356 591.05 866.759 533.933C803.162 476.815 1360.81 587.881 1312.02 533.933C1263.24 479.984 1557.26 533.933 1557.26 533.933" stroke="#F4F2FF"/>
<path d="M-125 554.933C-125 554.933 225.275 596.202 167.913 554.933C110.551 513.663 495.273 599.372 443.458 554.933C391.643 510.493 930.356 612.05 866.759 554.933C803.162 497.815 1360.81 608.881 1312.02 554.933C1263.24 500.984 1557.26 554.933 1557.26 554.933" stroke="#F4F2FF"/>
<path d="M-125 575.933C-125 575.933 225.275 617.202 167.913 575.933C110.551 534.663 495.273 620.372 443.458 575.933C391.643 531.493 930.356 633.05 866.759 575.933C803.162 518.815 1360.81 629.881 1312.02 575.933C1263.24 521.984 1557.26 575.933 1557.26 575.933" stroke="#F4F2FF"/>
<path d="M-125 596.933C-125 596.933 225.275 638.202 167.913 596.933C110.551 555.663 495.273 641.372 443.458 596.933C391.643 552.493 930.356 654.05 866.759 596.933C803.162 539.815 1360.81 650.881 1312.02 596.933C1263.24 542.984 1557.26 596.933 1557.26 596.933" stroke="#F4F2FF"/>
<path d="M-125 617.933C-125 617.933 225.275 659.202 167.913 617.933C110.551 576.663 495.273 662.372 443.458 617.933C391.643 573.493 930.356 675.05 866.759 617.933C803.162 560.815 1360.81 671.881 1312.02 617.933C1263.24 563.984 1557.26 617.933 1557.26 617.933" stroke="#F4F2FF"/>
<path d="M-125 638.933C-125 638.933 225.275 680.202 167.913 638.933C110.551 597.663 495.273 683.372 443.458 638.933C391.643 594.493 930.356 696.05 866.759 638.933C803.162 581.815 1360.81 692.881 1312.02 638.933C1263.24 584.984 1557.26 638.933 1557.26 638.933" stroke="#F4F2FF"/>
<path d="M-125 659.933C-125 659.933 225.275 701.202 167.913 659.933C110.551 618.663 495.273 704.372 443.458 659.933C391.643 615.493 930.356 717.05 866.759 659.933C803.162 602.815 1360.81 713.881 1312.02 659.933C1263.24 605.984 1557.26 659.933 1557.26 659.933" stroke="#F4F2FF"/>
<path d="M-125 680.933C-125 680.933 225.275 722.202 167.913 680.933C110.551 639.663 495.273 725.372 443.458 680.933C391.643 636.493 930.356 738.05 866.759 680.933C803.162 623.815 1360.81 734.881 1312.02 680.933C1263.24 626.984 1557.26 680.933 1557.26 680.933" stroke="#F4F2FF"/>
<path d="M-125 701.933C-125 701.933 225.275 743.202 167.913 701.933C110.551 660.663 495.273 746.372 443.458 701.933C391.643 657.493 930.356 759.05 866.759 701.933C803.162 644.815 1360.81 755.881 1312.02 701.933C1263.24 647.984 1557.26 701.933 1557.26 701.933" stroke="#F4F2FF"/>
<path d="M-125 722.933C-125 722.933 225.275 764.202 167.913 722.933C110.551 681.663 495.273 767.372 443.458 722.933C391.643 678.493 930.356 780.05 866.759 722.933C803.162 665.815 1360.81 776.881 1312.02 722.933C1263.24 668.984 1557.26 722.933 1557.26 722.933" stroke="#F4F2FF"/>
</svg>
