<svg width="375" height="160" viewBox="0 0 375 160" fill="none" xmlns="http://www.w3.org/2000/svg">
<path d="M-116.264 185.125C-116.264 185.125 234.011 226.395 176.649 185.125C119.288 143.855 504.009 229.565 452.194 185.125C400.379 140.686 939.093 242.243 875.496 185.125C811.899 128.007 1369.55 239.073 1320.76 185.125C1271.97 131.177 1566 185.125 1566 185.125" stroke="#E04472" stroke-opacity="0.2"/>
<path d="M-116.264 172.806C-116.264 172.806 234.011 214.076 176.649 172.806C119.288 131.536 504.009 217.246 452.194 172.806C400.379 128.367 939.093 229.924 875.496 172.806C811.899 115.688 1369.55 226.754 1320.76 172.806C1271.97 118.858 1566 172.806 1566 172.806" stroke="#E04472" stroke-opacity="0.2"/>
<path d="M-116.264 160.487C-116.264 160.487 234.011 201.757 176.649 160.487C119.288 119.217 504.009 204.927 452.194 160.487C400.379 116.048 939.093 217.605 875.496 160.487C811.899 103.369 1369.55 214.435 1320.76 160.487C1271.97 106.539 1566 160.487 1566 160.487" stroke="#E04472" stroke-opacity="0.2"/>
<path d="M-116.264 148.168C-116.264 148.168 234.011 189.438 176.649 148.168C119.288 106.898 504.009 192.607 452.194 148.168C400.379 103.728 939.093 205.286 875.496 148.168C811.899 91.0501 1369.55 202.116 1320.76 148.168C1271.97 94.2197 1566 148.168 1566 148.168" stroke="#E04472" stroke-opacity="0.2"/>
<path d="M-116.264 135.849C-116.264 135.849 234.011 177.119 176.649 135.849C119.288 94.5789 504.009 180.288 452.194 135.849C400.379 91.4093 939.093 192.967 875.496 135.849C811.899 78.731 1369.55 189.797 1320.76 135.849C1271.97 81.9006 1566 135.849 1566 135.849" stroke="#E04472" stroke-opacity="0.2"/>
<path d="M-116.264 123.53C-116.264 123.53 234.011 164.8 176.649 123.53C119.288 82.2598 504.009 167.969 452.194 123.53C400.379 79.0902 939.093 180.648 875.496 123.53C811.899 66.4119 1369.55 177.478 1320.76 123.53C1271.97 69.5815 1566 123.53 1566 123.53" stroke="#E04472" stroke-opacity="0.2"/>
<path d="M-116.264 111.211C-116.264 111.211 234.011 152.481 176.649 111.211C119.288 69.9407 504.009 155.65 452.194 111.211C400.379 66.7711 939.093 168.329 875.496 111.211C811.899 54.0928 1369.55 165.159 1320.76 111.211C1271.97 57.2624 1566 111.211 1566 111.211" stroke="#E04472" stroke-opacity="0.2"/>
<path d="M-116.264 98.8916C-116.264 98.8916 234.011 140.161 176.649 98.8916C119.288 57.6216 504.009 143.331 452.194 98.8916C400.379 54.4521 939.093 156.009 875.496 98.8916C811.899 41.7737 1369.55 152.84 1320.76 98.8916C1271.97 44.9433 1566 98.8916 1566 98.8916" stroke="#E04472" stroke-opacity="0.2"/>
<path d="M-116.264 86.5725C-116.264 86.5725 234.011 127.842 176.649 86.5725C119.288 45.3026 504.009 131.012 452.194 86.5725C400.379 42.133 939.093 143.69 875.496 86.5725C811.899 29.4546 1369.55 140.521 1320.76 86.5725C1271.97 32.6242 1566 86.5725 1566 86.5725" stroke="#E04472" stroke-opacity="0.2"/>
<path d="M-116.264 74.2534C-116.264 74.2534 234.011 115.523 176.649 74.2534C119.288 32.9835 504.009 118.693 452.194 74.2534C400.379 29.8139 939.093 131.371 875.496 74.2534C811.899 17.1355 1369.55 128.202 1320.76 74.2534C1271.97 20.3051 1566 74.2534 1566 74.2534" stroke="#E04472" stroke-opacity="0.2"/>
<path d="M-116.264 61.9343C-116.264 61.9343 234.011 103.204 176.649 61.9343C119.288 20.6644 504.009 106.374 452.194 61.9343C400.379 17.4948 939.093 119.052 875.496 61.9343C811.899 4.81643 1369.55 115.883 1320.76 61.9343C1271.97 7.98602 1566 61.9343 1566 61.9343" stroke="#E04472" stroke-opacity="0.2"/>
<path d="M-116.264 49.6152C-116.264 49.6152 234.011 90.8851 176.649 49.6152C119.288 8.34528 504.009 94.0547 452.194 49.6152C400.379 5.17569 939.093 106.733 875.496 49.6152C811.899 -7.50266 1369.55 103.563 1320.76 49.6152C1271.97 -4.33308 1566 49.6152 1566 49.6152" stroke="#E04472" stroke-opacity="0.2"/>
<path d="M-116.264 37.2961C-116.264 37.2961 234.011 78.566 176.649 37.2961C119.288 -3.97381 504.009 81.7356 452.194 37.2961C400.379 -7.1434 939.093 94.414 875.496 37.2961C811.899 -19.8218 1369.55 91.2444 1320.76 37.2961C1271.97 -16.6522 1566 37.2961 1566 37.2961" stroke="#E04472" stroke-opacity="0.2"/>
<path d="M-116.264 24.977C-116.264 24.977 234.011 66.2469 176.649 24.977C119.288 -16.2929 504.009 69.4165 452.194 24.977C400.379 -19.4625 939.093 82.0949 875.496 24.977C811.899 -32.1408 1369.55 78.9253 1320.76 24.977C1271.97 -28.9713 1566 24.977 1566 24.977" stroke="#E04472" stroke-opacity="0.2"/>
</svg>
