<svg width="1410" height="678" viewBox="0 0 1410 678" fill="none" xmlns="http://www.w3.org/2000/svg">
<rect x="1356" y="497.538" width="226.799" height="110" rx="55" transform="rotate(-42.608 1356 497.538)" fill="url(#paint0_linear_0_1)"/>
<circle cx="1330.5" cy="291.5" r="10.5" fill="url(#paint1_linear_0_1)"/>
<circle cx="721" cy="64" r="17" fill="url(#paint2_linear_0_1)"/>
<circle cx="57.5" cy="596.5" r="12.5" fill="url(#paint3_linear_0_1)"/>
<circle cx="287.5" cy="165.5" r="10.5" fill="url(#paint4_linear_0_1)"/>
<circle cx="1372" cy="11" r="11" fill="url(#paint5_linear_0_1)"/>
<circle cx="615.5" cy="490.5" r="10.5" fill="url(#paint6_linear_0_1)"/>
<circle cx="387" cy="662" r="16" fill="url(#paint7_linear_0_1)"/>
<circle cx="14.5" cy="61.5" r="14.5" fill="url(#paint8_linear_0_1)"/>
<defs>
<linearGradient id="paint0_linear_0_1" x1="1301.53" y1="556.758" x2="1337.14" y2="629.773" gradientUnits="userSpaceOnUse">
<stop stop-color="#6E5DE7"/>
<stop offset="1" stop-color="#B8B0F2"/>
</linearGradient>
<linearGradient id="paint1_linear_0_1" x1="1315.58" y1="281" x2="1327.74" y2="304.211" gradientUnits="userSpaceOnUse">
<stop/>
<stop offset="1" stop-color="#6E5DE7"/>
</linearGradient>
<linearGradient id="paint2_linear_0_1" x1="696.842" y1="47" x2="716.526" y2="84.5791" gradientUnits="userSpaceOnUse">
<stop/>
<stop offset="1" stop-color="#6E5DE7"/>
</linearGradient>
<linearGradient id="paint3_linear_0_1" x1="38.9957" y1="597.459" x2="49.2661" y2="607.673" gradientUnits="userSpaceOnUse">
<stop stop-color="#6E5DE7"/>
<stop offset="1" stop-color="#B8B0F2"/>
</linearGradient>
<linearGradient id="paint4_linear_0_1" x1="271.956" y1="166.306" x2="280.584" y2="174.885" gradientUnits="userSpaceOnUse">
<stop stop-color="#6E5DE7"/>
<stop offset="1" stop-color="#B8B0F2"/>
</linearGradient>
<linearGradient id="paint5_linear_0_1" x1="1355.72" y1="11.844" x2="1364.75" y2="20.8323" gradientUnits="userSpaceOnUse">
<stop stop-color="#6E5DE7"/>
<stop offset="1" stop-color="#B8B0F2"/>
</linearGradient>
<linearGradient id="paint6_linear_0_1" x1="600.579" y1="480" x2="612.737" y2="503.211" gradientUnits="userSpaceOnUse">
<stop/>
<stop offset="1" stop-color="#6E5DE7"/>
</linearGradient>
<linearGradient id="paint7_linear_0_1" x1="364.263" y1="646" x2="382.789" y2="681.369" gradientUnits="userSpaceOnUse">
<stop/>
<stop offset="1" stop-color="#6E5DE7"/>
</linearGradient>
<linearGradient id="paint8_linear_0_1" x1="-6.10526" y1="47" x2="10.6839" y2="79.0528" gradientUnits="userSpaceOnUse">
<stop/>
<stop offset="1" stop-color="#6E5DE7"/>
</linearGradient>
</defs>
</svg>
