<svg width="1440" height="232" viewBox="0 0 1440 232" fill="none" xmlns="http://www.w3.org/2000/svg">
<path d="M-116.264 255.977C-116.264 255.977 234.01 297.247 176.649 255.977C119.287 214.707 504.009 300.417 452.194 255.977C400.379 211.538 939.092 313.095 875.495 255.977C811.898 198.859 1369.55 309.925 1320.76 255.977C1271.97 202.029 1566 255.977 1566 255.977" stroke="#E04472" stroke-opacity="0.4"/>
<path d="M-116.264 234.977C-116.264 234.977 234.01 276.247 176.649 234.977C119.287 193.707 504.009 279.417 452.194 234.977C400.379 190.538 939.092 292.095 875.495 234.977C811.898 177.859 1369.55 288.925 1320.76 234.977C1271.97 181.029 1566 234.977 1566 234.977" stroke="#E04472" stroke-opacity="0.4"/>
<path d="M-116.264 213.977C-116.264 213.977 234.01 255.247 176.649 213.977C119.287 172.707 504.009 258.417 452.194 213.977C400.379 169.538 939.092 271.095 875.495 213.977C811.898 156.859 1369.55 267.925 1320.76 213.977C1271.97 160.029 1566 213.977 1566 213.977" stroke="#E04472" stroke-opacity="0.4"/>
<path d="M-116.264 192.977C-116.264 192.977 234.01 234.247 176.649 192.977C119.287 151.707 504.009 237.417 452.194 192.977C400.379 148.538 939.092 250.095 875.495 192.977C811.898 135.859 1369.55 246.925 1320.76 192.977C1271.97 139.029 1566 192.977 1566 192.977" stroke="#E04472" stroke-opacity="0.4"/>
<path d="M-116.264 171.977C-116.264 171.977 234.01 213.247 176.649 171.977C119.287 130.707 504.009 216.417 452.194 171.977C400.379 127.538 939.092 229.095 875.495 171.977C811.898 114.859 1369.55 225.925 1320.76 171.977C1271.97 118.029 1566 171.977 1566 171.977" stroke="#E04472" stroke-opacity="0.4"/>
<path d="M-116.264 150.977C-116.264 150.977 234.01 192.247 176.649 150.977C119.287 109.707 504.009 195.417 452.194 150.977C400.379 106.538 939.092 208.095 875.495 150.977C811.898 93.8592 1369.55 204.925 1320.76 150.977C1271.97 97.0287 1566 150.977 1566 150.977" stroke="#E04472" stroke-opacity="0.4"/>
<path d="M-116.264 129.977C-116.264 129.977 234.01 171.247 176.649 129.977C119.287 88.7071 504.009 174.417 452.194 129.977C400.379 85.5375 939.092 187.095 875.495 129.977C811.898 72.8592 1369.55 183.925 1320.76 129.977C1271.97 76.0287 1566 129.977 1566 129.977" stroke="#E04472" stroke-opacity="0.4"/>
<path d="M-116.264 108.977C-116.264 108.977 234.01 150.247 176.649 108.977C119.287 67.7071 504.009 153.417 452.194 108.977C400.379 64.5375 939.092 166.095 875.495 108.977C811.898 51.8592 1369.55 162.925 1320.76 108.977C1271.97 55.0287 1566 108.977 1566 108.977" stroke="#E04472" stroke-opacity="0.4"/>
<path d="M-116.264 87.977C-116.264 87.977 234.01 129.247 176.649 87.977C119.287 46.7071 504.009 132.417 452.194 87.977C400.379 43.5375 939.092 145.095 875.495 87.977C811.898 30.8592 1369.55 141.925 1320.76 87.977C1271.97 34.0287 1566 87.977 1566 87.977" stroke="#E04472" stroke-opacity="0.4"/>
<path d="M-116.264 66.977C-116.264 66.977 234.01 108.247 176.649 66.977C119.287 25.7071 504.009 111.417 452.194 66.977C400.379 22.5375 939.092 124.095 875.495 66.977C811.898 9.85915 1369.55 120.925 1320.76 66.977C1271.97 13.0287 1566 66.977 1566 66.977" stroke="#E04472" stroke-opacity="0.4"/>
<path d="M-116.264 45.977C-116.264 45.977 234.01 87.2469 176.649 45.977C119.287 4.7071 504.009 90.4165 452.194 45.977C400.379 1.53751 939.092 103.095 875.495 45.977C811.898 -11.1408 1369.55 99.9253 1320.76 45.977C1271.97 -7.97126 1566 45.977 1566 45.977" stroke="#E04472" stroke-opacity="0.4"/>
<path d="M-116.264 24.977C-116.264 24.977 234.01 66.2469 176.649 24.977C119.287 -16.2929 504.009 69.4165 452.194 24.977C400.379 -19.4625 939.092 82.0949 875.495 24.977C811.898 -32.1408 1369.55 78.9253 1320.76 24.977C1271.97 -28.9713 1566 24.977 1566 24.977" stroke="#E04472" stroke-opacity="0.4"/>
</svg>
