<svg xmlns="http://www.w3.org/2000/svg" height="1em" viewBox="0 -960 960 960"><path d="M481-439.001 269.923-227.924q-8.692 8.693-20.807 8.885-12.116.192-21.192-9.885-9.077-9.076-8.577-19.999.5-10.923 9.577-21L439.001-480 227.924-692.077q-8.693-8.692-8.885-19.807-.192-11.116 8.885-21.192 9.076-9.077 20.999-9.077 11.923 0 21 9.077L481-521.999l209.077-211.077q8.692-8.693 20.807-8.885 12.116-.192 21.192 8.885 9.077 10.076 8.577 20.999-.5 10.923-8.577 20L521.999-480l210.077 210.077q7.693 8.692 8.385 20.307.692 11.616-8.385 20.692-9.076 10.077-20.999 10.077-11.923 0-21-9.077L481-439.001Z"/></svg>