<svg height="1em" viewBox="0 0 40 41" fill="none" xmlns="http://www.w3.org/2000/svg">
<g clip-path="url(#clip0_311_290)">
<path d="M11.5671 8.57475C11.5666 9.4588 11.215 10.3065 10.5896 10.9313C9.96413 11.5561 9.11611 11.9069 8.23206 11.9064C7.348 11.906 6.50033 11.5544 5.87552 10.9289C5.25071 10.3035 4.89995 9.45547 4.90039 8.57141C4.90083 7.68736 5.25245 6.83969 5.87788 6.21488C6.50331 5.59007 7.35134 5.2393 8.23539 5.23975C9.11945 5.24019 9.96712 5.5918 10.5919 6.21724C11.2167 6.84267 11.5675 7.69069 11.5671 8.57475ZM11.6671 14.3747H5.00039V35.2414H11.6671V14.3747ZM22.2004 14.3747H15.5671V35.2414H22.1337V24.2914C22.1337 18.1914 30.0837 17.6247 30.0837 24.2914V35.2414H36.6671V22.0247C36.6671 11.7414 24.9004 12.1247 22.1337 17.1747L22.2004 14.3747Z" fill="#909090"/>
</g>
<defs>
<clipPath id="clip0_311_290">
<rect width="40" height="40" fill="white" transform="translate(0 0.241394)"/>
</clipPath>
</defs>
</svg>
