<svg height="1em" viewBox="0 0 40 41" fill="none" xmlns="http://www.w3.org/2000/svg">
<g clip-path="url(#clip0_311_284)">
<path d="M36.9365 9.66806C35.6641 10.2309 34.3148 10.6005 32.9332 10.7647C34.3894 9.89378 35.4794 8.52308 35.9998 6.90806C34.6332 7.72139 33.1348 8.29139 31.5732 8.59973C30.5242 7.47736 29.1338 6.733 27.6181 6.48237C26.1024 6.23174 24.5464 6.48888 23.192 7.21382C21.8375 7.93875 20.7605 9.09087 20.1284 10.491C19.4962 11.8912 19.3444 13.461 19.6965 14.9564C16.925 14.8175 14.2137 14.0973 11.7387 12.8425C9.26358 11.5877 7.08006 9.82647 5.32984 7.67306C4.71033 8.73714 4.38477 9.94677 4.38651 11.1781C4.38651 13.5947 5.61651 15.7297 7.48651 16.9797C6.37986 16.9449 5.29756 16.646 4.32984 16.1081V16.1947C4.33018 17.8042 4.88713 19.3641 5.90626 20.6098C6.92539 21.8556 8.34398 22.7105 9.92151 23.0297C8.8942 23.3081 7.81702 23.3492 6.77151 23.1497C7.21629 24.5351 8.08319 25.7467 9.25083 26.6149C10.4185 27.4831 11.8284 27.9644 13.2832 27.9914C11.8373 29.1269 10.1818 29.9664 8.41131 30.4617C6.64082 30.957 4.79006 31.0985 2.96484 30.8781C6.15101 32.9271 9.86 34.0149 13.6482 34.0114C26.4698 34.0114 33.4815 23.3897 33.4815 14.1781C33.4815 13.8781 33.4732 13.5747 33.4598 13.2781C34.8246 12.2917 36.0025 11.0698 36.9382 9.66973L36.9365 9.66806Z" fill="#909090"/>
</g>
<defs>
<clipPath id="clip0_311_284">
<rect width="40" height="40" fill="white" transform="translate(0 0.241394)"/>
</clipPath>
</defs>
</svg>
