<svg xmlns="http://www.w3.org/2000/svg" preserveAspectRatio="xMidYMid meet" viewBox="0 0 121 20" fill="none">
  <g clip-path="url(#clip0_130_358)">
    <path d="M10.8607 19.825V16.0192C15 16.0192 18.1841 12.0192 16.6119 7.78622C16.0149 6.2134 14.7413 4.95126 13.1293 4.38816C8.79102 2.85418 4.69152 5.96097 4.69152 9.99981H0.791016C0.791016 3.57263 7.15918 -1.43708 14.0647 0.660004C17.0895 1.57263 19.4776 3.92214 20.4129 6.85418C22.5622 13.6115 17.4477 19.825 10.8607 19.825Z" fill="#0080FF"/>
    <path fill-rule="evenodd" clip-rule="evenodd" d="M10.8611 16.0193H6.98047V12.2329H10.8611V16.0193Z" fill="#0080FF"/>
    <path fill-rule="evenodd" clip-rule="evenodd" d="M6.98019 18.9317H3.99512V16.019H6.98019V18.9317Z" fill="#0080FF"/>
    <path fill-rule="evenodd" clip-rule="evenodd" d="M3.99477 16.0195H1.4873V13.5923H3.99477V16.0195Z" fill="#0080FF"/>
    <path d="M36.6114 5.86415C35.4572 5.08745 34.0244 4.67969 32.3527 4.67969H28.7109V15.9612H32.3527C34.0244 15.9612 35.4572 15.5535 36.6114 14.7185C37.2483 14.2913 37.7458 13.67 38.0841 12.9127C38.4224 12.1554 38.6015 11.2622 38.6015 10.2525C38.6015 9.26221 38.4224 8.36901 38.0841 7.61173C37.7458 6.87386 37.2483 6.27192 36.6114 5.86415ZM30.8403 6.60202H31.9945C33.2682 6.60202 34.3229 6.85445 35.1189 7.32047C35.9945 7.84474 36.4522 8.83503 36.4522 10.2525C36.4522 11.7282 35.9945 12.7574 35.1189 13.3205C34.3627 13.8059 33.308 14.0583 32.0144 14.0583H30.8602V6.60202H30.8403Z" fill="#0080FF"/>
    <path d="M41.1486 4.54346C40.7904 4.54346 40.4919 4.65996 40.2531 4.89297C40.0143 5.12598 39.875 5.41724 39.875 5.74734C39.875 6.09685 39.9944 6.38812 40.2531 6.62113C40.4919 6.85414 40.7904 6.99006 41.1486 6.99006C41.5068 6.99006 41.8054 6.87355 42.0442 6.62113C42.283 6.38812 42.4223 6.07744 42.4223 5.74734C42.4223 5.39783 42.3029 5.10656 42.0442 4.89297C41.8054 4.65996 41.4869 4.54346 41.1486 4.54346Z" fill="#0080FF"/>
    <path d="M42.1435 8.01953H40.0938V15.9807H42.1435V8.01953Z" fill="#0080FF"/>
    <path d="M49.6065 8.67956C48.9896 8.13588 48.2931 7.8252 47.5567 7.8252C46.4224 7.8252 45.4871 8.21354 44.7508 8.95141C44.0145 9.68927 43.6562 10.6601 43.6562 11.8058C43.6562 12.932 44.0145 13.8834 44.7508 14.6601C45.4871 15.398 46.4224 15.7864 47.5567 15.7864C48.3528 15.7864 49.0294 15.5728 49.5866 15.1456V15.3398C49.5866 16 49.4075 16.5048 49.0493 16.8737C48.6911 17.2233 48.1936 17.398 47.5767 17.398C46.6214 17.398 46.0443 17.0291 45.308 16.0776L43.915 17.3786L43.9548 17.4368C44.2533 17.8446 44.711 18.2524 45.3279 18.6407C45.9448 19.0291 46.701 19.2233 47.6165 19.2233C48.8304 19.2233 49.8254 18.8543 50.5418 18.1359C51.2781 17.4174 51.6364 16.4466 51.6364 15.2427V8.01937H49.6264V8.67956H49.6065ZM49.0692 13.3786C48.711 13.7669 48.2533 13.9611 47.6563 13.9611C47.0592 13.9611 46.6015 13.7669 46.2632 13.3786C45.905 12.9902 45.7259 12.466 45.7259 11.8252C45.7259 11.1844 45.905 10.6407 46.2632 10.2524C46.6214 9.86403 47.0791 9.65044 47.6563 9.65044C48.2533 9.65044 48.711 9.84461 49.0692 10.2524C49.4274 10.6407 49.6065 11.1844 49.6065 11.8252C49.6065 12.466 49.4075 12.9902 49.0692 13.3786Z" fill="#0080FF"/>
    <path d="M55.4169 8.01953H53.3672V15.9807H55.4169V8.01953Z" fill="#0080FF"/>
    <path d="M54.4221 4.54346C54.0639 4.54346 53.7654 4.65996 53.5265 4.89297C53.2877 5.12598 53.1484 5.41724 53.1484 5.74734C53.1484 6.09685 53.2678 6.38812 53.5265 6.62113C53.7654 6.85414 54.0639 6.99006 54.4221 6.99006C54.7803 6.99006 55.0788 6.87355 55.3176 6.62113C55.5564 6.38812 55.6957 6.07744 55.6957 5.74734C55.6957 5.39783 55.5763 5.10656 55.3176 4.89297C55.0788 4.65996 54.7604 4.54346 54.4221 4.54346Z" fill="#0080FF"/>
    <path d="M59.9146 5.8833H57.9046V8.03864H56.7305V9.86389H57.9046V13.1649C57.9046 14.194 58.1235 14.9318 58.5414 15.359C58.9593 15.7862 59.6956 15.9998 60.7504 15.9998C61.0887 15.9998 61.427 15.9804 61.7454 15.961H61.8449V14.1357L61.1484 14.1746C60.6509 14.1746 60.3325 14.0969 60.1733 13.9221C60.0141 13.7474 59.9345 13.3979 59.9345 12.8736V9.84447H61.8449V8.01922H59.9345V5.8833H59.9146Z" fill="#0080FF"/>
    <path d="M73.4872 4.67969H71.4375V15.9612H73.4872V4.67969Z" fill="#0080FF"/>
    <path d="M94.2036 13.1262C93.8454 13.5339 93.4673 13.8834 93.1688 14.0582C92.8902 14.233 92.532 14.3301 92.114 14.3301C91.517 14.3301 91.0195 14.1165 90.6215 13.6699C90.2235 13.2233 90.0245 12.6601 90.0245 11.9805C90.0245 11.3009 90.2235 10.7378 90.6016 10.3106C90.9996 9.86403 91.4772 9.65044 92.0742 9.65044C92.731 9.65044 93.4275 10.0582 94.0245 10.7378L95.3777 9.47568C94.5021 8.34947 93.3678 7.8252 92.0145 7.8252C90.8802 7.8252 89.9051 8.23296 89.1091 9.00966C88.313 9.78636 87.915 10.7961 87.915 11.9805C87.915 13.165 88.313 14.1553 89.1091 14.9514C89.9051 15.7475 90.8802 16.1359 92.0145 16.1359C93.5071 16.1359 94.7011 15.5145 95.4971 14.3689L94.2036 13.1262Z" fill="#0080FF"/>
    <path d="M102.621 9.12617C102.323 8.73782 101.925 8.40772 101.447 8.17471C100.949 7.9417 100.392 7.8252 99.7555 7.8252C98.6012 7.8252 97.6659 8.23296 96.9694 9.0485C96.2928 9.86403 95.9346 10.8543 95.9346 12.0388C95.9346 13.2427 96.3127 14.233 97.0689 15.0097C97.8052 15.7669 98.8201 16.1553 100.034 16.1553C101.407 16.1553 102.561 15.6116 103.397 14.5242L103.437 14.466L102.104 13.2038C101.984 13.3592 101.805 13.5145 101.646 13.6699C101.447 13.864 101.248 14 101.049 14.097C100.75 14.2524 100.392 14.3106 100.014 14.3106C99.4371 14.3106 98.9793 14.1553 98.6211 13.8252C98.2828 13.5339 98.0838 13.1262 98.044 12.6213H103.477L103.497 11.8834C103.497 11.3592 103.417 10.8737 103.278 10.4077C103.139 9.96112 102.92 9.53393 102.621 9.12617ZM98.1435 11.0097C98.243 10.6213 98.4221 10.3106 98.6808 10.0582C98.9594 9.78636 99.3177 9.65044 99.7555 9.65044C100.253 9.65044 100.631 9.78636 100.89 10.0582C101.129 10.3106 101.268 10.6213 101.308 10.9902H98.1435V11.0097Z" fill="#0080FF"/>
    <path d="M110.502 8.62143C109.885 8.09715 109.029 7.84473 107.954 7.84473C107.278 7.84473 106.641 8.00007 106.064 8.27191C105.526 8.54376 105.009 8.97094 104.671 9.55346L104.691 9.57288L106.004 10.7962C106.541 9.96123 107.138 9.66997 107.934 9.66997C108.372 9.66997 108.71 9.78647 108.989 10.0001C109.268 10.2137 109.387 10.5049 109.387 10.8544V11.2428C108.87 11.0874 108.372 11.0098 107.875 11.0098C106.86 11.0098 106.024 11.2428 105.407 11.7088C104.79 12.1748 104.472 12.8544 104.472 13.6894C104.472 14.4273 104.73 15.0486 105.268 15.4952C105.805 15.9224 106.462 16.1554 107.238 16.1554C108.014 16.1554 108.75 15.8447 109.407 15.3205V15.9806H111.417V10.8544C111.457 9.90298 111.138 9.1457 110.502 8.62143ZM106.86 12.9321C107.099 12.7768 107.417 12.6991 107.835 12.6991C108.332 12.6991 108.85 12.7962 109.387 12.9904V13.7671C108.949 14.1748 108.352 14.369 107.616 14.369C107.258 14.369 106.979 14.2913 106.8 14.136C106.621 13.9806 106.521 13.8059 106.521 13.5535C106.521 13.301 106.641 13.0874 106.86 12.9321Z" fill="#0080FF"/>
    <path d="M119.338 8.77676C118.761 8.15541 117.965 7.84473 116.95 7.84473C116.134 7.84473 115.477 8.07774 114.98 8.52434V8.0389H112.97V16.0001H115.019V11.5923C115.019 10.9904 115.159 10.5049 115.457 10.1748C115.756 9.82531 116.134 9.66997 116.671 9.66997C117.129 9.66997 117.487 9.82531 117.746 10.1166C118.005 10.4272 118.144 10.835 118.144 11.3593V15.9612H120.194V11.3593C120.194 10.2719 119.915 9.39812 119.338 8.77676Z" fill="#0080FF"/>
    <path d="M68.8697 8.62143C68.2528 8.09715 67.3971 7.84473 66.3224 7.84473C65.6458 7.84473 65.009 8.00007 64.4319 8.27191C63.8946 8.54376 63.3772 8.97094 63.0388 9.55346L63.0588 9.57288L64.3722 10.7962C64.9095 9.96123 65.5065 9.66997 66.3025 9.66997C66.7403 9.66997 67.0787 9.78647 67.3573 10.0001C67.6359 10.2137 67.7553 10.5049 67.7553 10.8544V11.2428C67.2379 11.0874 66.7403 11.0098 66.2428 11.0098C65.2279 11.0098 64.3921 11.2428 63.7752 11.7088C63.1583 12.1748 62.8398 12.8544 62.8398 13.6894C62.8398 14.4273 63.0986 15.0486 63.6359 15.4952C64.1732 15.9224 64.8299 16.1554 65.606 16.1554C66.3821 16.1554 67.1185 15.8447 67.7752 15.3205V15.9806H69.7851V10.8544C69.805 9.90298 69.4866 9.1457 68.8697 8.62143ZM65.2279 12.9321C65.4667 12.7768 65.7851 12.6991 66.203 12.6991C66.7005 12.6991 67.218 12.7962 67.7553 12.9904V13.7671C67.3175 14.1748 66.7204 14.369 65.9841 14.369C65.6259 14.369 65.3473 14.2913 65.1682 14.136C64.9891 13.9806 64.8896 13.8059 64.8896 13.5535C64.8896 13.301 64.9891 13.0874 65.2279 12.9321Z" fill="#0080FF"/>
    <path d="M80.9301 16.1358C77.6465 16.1358 74.96 13.5339 74.96 10.3106C74.96 7.08729 77.6266 4.48535 80.9301 4.48535C84.2137 4.48535 86.9003 7.08729 86.9003 10.3106C86.9003 13.5339 84.2137 16.1358 80.9301 16.1358ZM80.9301 6.56302C78.8008 6.56302 77.0694 8.25234 77.0694 10.33C77.0694 12.4077 78.8008 14.097 80.9301 14.097C83.0595 14.097 84.7908 12.4077 84.7908 10.33C84.7908 8.25234 83.0595 6.56302 80.9301 6.56302Z" fill="#0080FF"/>
  </g>
  <defs>
    <clipPath id="clip0_130_358">
      <rect width="120" height="20" fill="white" transform="translate(0.492188)"/>
    </clipPath>
  </defs>
</svg>