<svg xmlns="http://www.w3.org/2000/svg" preserveAspectRatio="xMidYMid meet" viewBox="0 0 71 20" fill="none">
  <g clip-path="url(#clip0_130_448)">
    <path d="M15.6974 3.788C15.6837 3.68865 15.5969 3.63354 15.5249 3.62754C15.4534 3.62154 14.053 3.60026 14.053 3.60026C14.053 3.60026 12.8817 2.46287 12.766 2.34716C12.6504 2.23146 12.4244 2.26639 12.3365 2.29259C12.3354 2.29313 12.1166 2.36081 11.7482 2.47487C11.6865 2.27512 11.5959 2.02952 11.4666 1.78284C11.0496 0.987101 10.4389 0.566311 9.70098 0.565223C9.69989 0.565223 9.69934 0.565223 9.69826 0.565223C9.64694 0.565223 9.59619 0.570134 9.54491 0.574498C9.52308 0.548302 9.50124 0.522652 9.47832 0.497544C9.15685 0.15371 8.74481 -0.013842 8.25088 0.000893809C7.29796 0.0281824 6.34888 0.7164 5.57934 1.93893C5.03793 2.79906 4.62586 3.8797 4.50907 4.71636C3.41479 5.05528 2.64962 5.29213 2.6327 5.29761C2.08038 5.47115 2.06292 5.48806 1.99088 6.00875C1.93739 6.40223 0.492188 17.5775 0.492188 17.5775L12.6034 19.6721L17.8526 18.3672C17.8526 18.3672 15.711 3.88734 15.6974 3.788ZM11.1418 2.66262C10.8629 2.74885 10.5458 2.84709 10.202 2.95352C10.1949 2.47106 10.1376 1.79976 9.91275 1.2196C10.6359 1.35659 10.9917 2.1747 11.1418 2.66262ZM9.56835 3.14999C8.93363 3.34646 8.24104 3.56095 7.54629 3.776C7.74166 3.02774 8.11226 2.28276 8.56744 1.7943C8.73662 1.61256 8.97347 1.41007 9.25399 1.29437C9.5176 1.84451 9.57491 2.62332 9.56835 3.14999ZM8.26996 0.635078C8.49373 0.630167 8.68203 0.679288 8.84304 0.785167C8.58544 0.918882 8.33655 1.11099 8.10298 1.3615C7.4977 2.01097 7.0338 3.01901 6.84878 3.99157C6.27189 4.17003 5.70757 4.34524 5.18799 4.5057C5.51602 2.9748 6.79911 0.677649 8.26996 0.635078Z" fill="#95BF47"/>
    <path d="M15.525 3.6281C15.4535 3.6221 14.0531 3.60082 14.0531 3.60082C14.0531 3.60082 12.8819 2.46342 12.7662 2.34772C12.7231 2.3046 12.6647 2.28222 12.6035 2.27295L12.6041 19.6716L17.8528 18.3672C17.8528 18.3672 15.7112 3.8879 15.6975 3.78856C15.6838 3.68921 15.5965 3.6341 15.525 3.6281Z" fill="#5E8E3E"/>
    <path d="M9.69439 6.32672L9.08478 8.60748C9.08478 8.60748 8.40475 8.29803 7.59865 8.34879C6.41649 8.42358 6.40393 9.16908 6.41597 9.3563C6.48036 10.3763 9.1639 10.599 9.31455 12.9884C9.43298 14.868 8.31741 16.1539 6.71013 16.2554C4.78082 16.3771 3.71875 15.2391 3.71875 15.2391L4.12754 13.5003C4.12754 13.5003 5.19669 14.307 6.05246 14.2529C6.61134 14.2175 6.81108 13.7629 6.79088 13.4414C6.70685 12.1108 4.52157 12.1894 4.38351 10.003C4.26724 8.16325 5.4756 6.29889 8.14167 6.13079C9.16882 6.06476 9.69439 6.32672 9.69439 6.32672Z" fill="white"/>
    <path d="M24.7651 11.1028C24.1615 10.7753 23.8513 10.4992 23.8513 10.1197C23.8513 9.63686 24.2822 9.32666 24.9551 9.32666C25.7384 9.32666 26.4377 9.65417 26.4377 9.65417L26.9893 7.96417C26.9893 7.96417 26.4821 7.56738 24.9892 7.56738C22.9116 7.56738 21.4717 8.75719 21.4717 10.4299C21.4717 11.3783 22.144 12.1026 23.0409 12.6195C23.7652 13.0331 24.024 13.3265 24.024 13.7574C24.024 14.2056 23.6619 14.5677 22.9895 14.5677C21.9875 14.5677 21.0413 14.0502 21.0413 14.0502L20.4551 15.7402C20.4551 15.7402 21.3293 16.3265 22.8001 16.3265C24.9383 16.3265 26.4729 15.2747 26.4729 13.3779C26.4724 12.3613 25.6967 11.637 24.7651 11.1028Z" fill="black"/>
    <path d="M33.2832 7.55094C32.2313 7.55094 31.4037 8.05113 30.766 8.80953L30.7313 8.79218L31.6451 4.01611H29.2654L26.9551 16.172H29.3347L30.1278 12.0168C30.4379 10.4476 31.2483 9.48238 32.0072 9.48238C32.5415 9.48238 32.7489 9.84451 32.7489 10.362C32.7489 10.6895 32.7142 11.0863 32.6454 11.4138L31.749 16.1726H34.1288L35.0596 11.2584C35.1632 10.7409 35.2324 10.1206 35.2324 9.70648C35.2314 8.3613 34.5245 7.55094 33.2832 7.55094Z" fill="black"/>
    <path d="M40.6112 7.55078C37.7486 7.55078 35.8525 10.1372 35.8525 13.0165C35.8525 14.8613 36.9902 16.344 39.1286 16.344C41.9391 16.344 43.8358 13.8269 43.8358 10.8783C43.8358 9.1715 42.8355 7.55078 40.6112 7.55078ZM39.4388 14.517C38.6283 14.517 38.2834 13.8274 38.2834 12.9651C38.2834 11.6031 38.9906 9.37885 40.2837 9.37885C41.1286 9.37885 41.404 10.1031 41.404 10.8101C41.404 12.2754 40.6978 14.517 39.4388 14.517Z" fill="black"/>
    <path d="M49.922 7.55078C48.3158 7.55078 47.4043 8.96472 47.4043 8.96472H47.3702L47.5082 7.68881H45.4046C45.3014 8.55114 45.1112 9.86114 44.922 10.8442L43.2666 19.5513H45.6463L46.301 16.0338H46.3532C46.3532 16.0338 46.8414 16.344 47.7499 16.344C50.543 16.344 52.3705 13.4821 52.3705 10.5849C52.3705 8.98206 51.6633 7.55078 49.922 7.55078ZM47.6459 14.5511C47.0282 14.5511 46.6627 14.2063 46.6627 14.2063L47.0594 11.9821C47.3355 10.4994 48.1112 9.51632 48.9391 9.51632C49.6633 9.51632 49.8873 10.1887 49.8873 10.8269C49.8873 12.3615 48.9735 14.5511 47.6459 14.5511Z" fill="black"/>
    <path d="M55.7672 4.13672C55.0089 4.13672 54.4053 4.74029 54.4053 5.516C54.4053 6.22298 54.8535 6.70583 55.5259 6.70583H55.5604C56.302 6.70583 56.9397 6.20564 56.9571 5.32656C56.9571 4.63688 56.4915 4.13672 55.7672 4.13672Z" fill="black"/>
    <path d="M52.4404 16.1718H54.8194L56.4408 7.74072H54.0437L52.4404 16.1718Z" fill="black"/>
    <path d="M62.4926 7.72339H60.8372L60.9231 7.3266C61.0611 6.51624 61.5441 5.79195 62.3372 5.79195C62.7605 5.79195 63.0956 5.91267 63.0956 5.91267L63.5611 4.05054C63.5611 4.05054 63.1474 3.84375 62.2677 3.84375C61.4228 3.84375 60.5785 4.08516 59.9401 4.63677C59.1297 5.32644 58.7503 6.32624 58.5608 7.3266L58.4923 7.72339H57.3883L57.0434 9.5168H58.1474L56.8887 16.1723H59.2683L60.527 9.5168H62.1651L62.4926 7.72339Z" fill="black"/>
    <path d="M68.2164 7.74079C68.2164 7.74079 66.7288 11.4883 66.061 13.534H66.0262C65.981 12.8752 65.44 7.74079 65.44 7.74079H62.9397L64.3715 15.4822C64.4062 15.6544 64.3889 15.7583 64.3197 15.879C64.0433 16.4133 63.578 16.9308 63.0262 17.3103C62.578 17.6378 62.078 17.8445 61.6816 17.9826L62.3367 20.0001C62.8197 19.8967 63.8193 19.4999 64.6643 18.7069C65.7508 17.6897 66.7505 16.1204 67.7849 13.9822L70.699 7.74023H68.2164V7.74079Z" fill="black"/>
  </g>
  <defs>
    <clipPath id="clip0_130_448">
      <rect width="70.4918" height="20" fill="white" transform="translate(0.492188)"/>
    </clipPath>
  </defs>
</svg>