<svg xmlns="http://www.w3.org/2000/svg" preserveAspectRatio="xMidYMid meet" viewBox="0 0 72 32" fill="none">
  <g clip-path="url(#clip0_125_261)">
    <path d="M38.6851 5.07231V7.60704H36.3356V22.3682H33.784V7.60602H31.457V5.07129H38.6851V5.07231ZM47.0936 5.07231H49.6452V22.3682H47.0936V15.5434H47.8772L47.832 15.521L47.0936 15.0982L44.9677 13.8756V22.3682H42.4161V5.07231H44.9677V11.0974L47.0936 12.3199V5.07231ZM58.2773 5.07231L60.6043 6.4059V21.0336L58.2773 22.3672H53.3762V5.07231H58.2773ZM58.0537 16.1883V8.05123L57.2702 7.60704H55.9277V19.8345H57.2702L58.0537 19.3903V16.1893V16.1883ZM71.5643 10.4525H69.0128V7.60704H66.8868V19.8345H69.0128V12.3189L71.5643 13.786V16.5428V19.8335V22.3682H64.3362V5.07231H71.5643V7.60704V10.4525Z" fill="#6E5DE7"/>
    <path d="M54.2535 26.894C54.2535 26.9164 54.2423 26.9276 54.2197 26.9276H54.0443C54.0341 26.9276 54.0259 26.9245 54.0177 26.9184C54.0105 26.9123 54.0064 26.9041 54.0064 26.894V24.8279C54.0064 24.8187 54.0023 24.8146 53.993 24.8146H53.5223C53.5121 24.8146 53.5039 24.8116 53.4957 24.8054C53.4885 24.7993 53.4844 24.7912 53.4844 24.781V24.6373C53.4844 24.6272 53.4885 24.619 53.4957 24.6129C53.5028 24.6068 53.5121 24.6037 53.5223 24.6037H54.7386C54.7489 24.6037 54.7581 24.6068 54.7653 24.6129C54.7725 24.619 54.7766 24.6272 54.7766 24.6373V24.781C54.7766 24.7912 54.7735 24.7993 54.7653 24.8054C54.7581 24.8116 54.7489 24.8146 54.7386 24.8146H54.2669C54.2576 24.8146 54.2535 24.8187 54.2535 24.8279V26.894ZM55.0381 24.8279C55.0381 24.8065 55.0453 24.7871 55.0586 24.7698L55.1714 24.6231C55.1847 24.6098 55.2012 24.6027 55.2196 24.6027H56.0472C56.0575 24.6027 56.0667 24.6058 56.0739 24.6119C56.0811 24.618 56.0852 24.6261 56.0852 24.6363V24.78C56.0852 24.7902 56.0821 24.7983 56.0739 24.8044C56.0667 24.8105 56.0575 24.8136 56.0472 24.8136H55.2986C55.2893 24.8136 55.2852 24.8177 55.2852 24.8268V25.5736L55.4227 25.4677C55.4319 25.4585 55.4432 25.4544 55.4565 25.4544H55.6483C55.6585 25.4544 55.6668 25.4575 55.6739 25.4656C55.6801 25.4728 55.6832 25.4819 55.6832 25.4921V25.6286C55.6832 25.6388 55.6801 25.647 55.6739 25.6551C55.6678 25.6622 55.6585 25.6663 55.6483 25.6663H55.3191C55.2965 25.6663 55.2852 25.6775 55.2852 25.6999V26.7024C55.2852 26.7116 55.2893 26.7157 55.2986 26.7157H56.1047C56.1149 26.7157 56.1241 26.7187 56.1313 26.7248C56.1385 26.7309 56.1426 26.7391 56.1426 26.7493V26.8929C56.1426 26.9031 56.1395 26.9113 56.1313 26.9174C56.1241 26.9235 56.1149 26.9266 56.1047 26.9266H55.0719C55.0494 26.9266 55.0381 26.9153 55.0381 26.8929V24.8268V24.8279ZM56.4492 24.8279C56.4492 24.8065 56.4564 24.7871 56.4698 24.7698L56.5826 24.6231C56.5959 24.6098 56.6123 24.6027 56.6308 24.6027H57.4584C57.4687 24.6027 57.4779 24.6058 57.4851 24.6119C57.4922 24.618 57.4963 24.6261 57.4963 24.6363V24.78C57.4963 24.7902 57.4933 24.7983 57.4851 24.8044C57.4779 24.8105 57.4687 24.8136 57.4584 24.8136H56.7097C56.7005 24.8136 56.6964 24.8177 56.6964 24.8268V26.7024C56.6964 26.7116 56.7005 26.7157 56.7097 26.7157H57.5158C57.5261 26.7157 57.5353 26.7187 57.5425 26.7248C57.5497 26.7309 57.5538 26.7391 57.5538 26.7493V26.8929C57.5538 26.9031 57.5507 26.9113 57.5425 26.9174C57.5353 26.9235 57.5261 26.9266 57.5158 26.9266H56.4831C56.4605 26.9266 56.4492 26.9153 56.4492 26.8929V24.8268V24.8279ZM56.4492 24.8279C56.4492 24.8065 56.4564 24.7871 56.4698 24.7698L56.5826 24.6231C56.5959 24.6098 56.6123 24.6027 56.6308 24.6027H57.4584C57.4687 24.6027 57.4779 24.6058 57.4851 24.6119C57.4922 24.618 57.4963 24.6261 57.4963 24.6363V24.78C57.4963 24.7902 57.4933 24.7983 57.4851 24.8044C57.4779 24.8105 57.4687 24.8136 57.4584 24.8136H56.7097C56.7005 24.8136 56.6964 24.8177 56.6964 24.8268V26.7024C56.6964 26.7116 56.7005 26.7157 56.7097 26.7157H57.5158C57.5261 26.7157 57.5353 26.7187 57.5425 26.7248C57.5497 26.7309 57.5538 26.7391 57.5538 26.7493V26.8929C57.5538 26.9031 57.5507 26.9113 57.5425 26.9174C57.5353 26.9235 57.5261 26.9266 57.5158 26.9266H56.4831C56.4605 26.9266 56.4492 26.9153 56.4492 26.8929V24.8268V24.8279ZM59.0941 24.6373C59.0941 24.6272 59.0983 24.619 59.1054 24.6119C59.1126 24.6058 59.1218 24.6027 59.1321 24.6027H59.3075C59.33 24.6027 59.3413 24.6139 59.3413 24.6363V26.894C59.3413 26.9031 59.3382 26.9113 59.3321 26.9174C59.3259 26.9245 59.3177 26.9276 59.3064 26.9276H59.1311C59.1208 26.9276 59.1126 26.9245 59.1044 26.9174C59.0962 26.9103 59.0931 26.9021 59.0931 26.894V25.542L58.9588 25.649C58.9465 25.6582 58.9331 25.6622 58.9208 25.6622H58.3137C58.3004 25.6622 58.2881 25.6582 58.2799 25.649L58.1424 25.542V26.894C58.1424 26.9031 58.1394 26.9113 58.1312 26.9174C58.124 26.9245 58.1147 26.9276 58.1045 26.9276H57.9291C57.9199 26.9276 57.9117 26.9245 57.9055 26.9174C57.8994 26.9103 57.8953 26.9021 57.8953 26.894V24.6363C57.8953 24.6261 57.8984 24.618 57.9055 24.6109C57.9127 24.6047 57.9199 24.6017 57.9291 24.6017H58.1045C58.1147 24.6017 58.124 24.6047 58.1312 24.6109C58.1383 24.617 58.1424 24.6251 58.1424 24.6363V25.4137C58.1424 25.4238 58.1455 25.433 58.1527 25.4401C58.1599 25.4473 58.1671 25.4514 58.1763 25.4514H59.0583C59.0685 25.4514 59.0767 25.4483 59.0839 25.4401C59.09 25.433 59.0931 25.4238 59.0931 25.4137V24.6363L59.0941 24.6373ZM60.9648 24.6373C60.9648 24.6272 60.9689 24.619 60.976 24.6119C60.9832 24.6058 60.9925 24.6027 61.0027 24.6027H61.1781C61.2006 24.6027 61.2119 24.6139 61.2119 24.6363V26.894C61.2119 26.9164 61.2006 26.9276 61.1781 26.9276H61.0027C60.9925 26.9276 60.9842 26.9245 60.976 26.9184C60.9689 26.9123 60.9648 26.9041 60.9648 26.894V25.6969C60.9648 25.6877 60.9607 25.6836 60.9514 25.6836H60.7904C60.7802 25.6836 60.772 25.6796 60.7638 25.6724C60.7566 25.6653 60.7525 25.6561 60.7525 25.6459V25.4687C60.7525 25.4595 60.7484 25.4554 60.7391 25.4554H60.5535C60.5433 25.4554 60.5351 25.4524 60.5289 25.4442C60.5227 25.4371 60.5197 25.4279 60.5197 25.4177V25.2435C60.5197 25.2344 60.5156 25.2303 60.5063 25.2303H60.3207C60.3105 25.2303 60.3023 25.2262 60.294 25.2191C60.2869 25.2119 60.2828 25.2028 60.2828 25.1926V25.0153C60.2828 25.0061 60.2787 25.0021 60.2694 25.0021H60.0982C60.0889 25.0021 60.0848 25.0061 60.0848 25.0153V26.894C60.0848 26.9041 60.0818 26.9123 60.0736 26.9184C60.0664 26.9245 60.0571 26.9276 60.0469 26.9276H59.8715C59.849 26.9276 59.8377 26.9164 59.8377 26.894V24.6363C59.8377 24.6139 59.849 24.6027 59.8715 24.6027H60.0428C60.0653 24.6027 60.0766 24.6139 60.0766 24.6363V24.7963C60.0766 24.8054 60.0807 24.8095 60.09 24.8095H60.2571C60.2674 24.8095 60.2766 24.8126 60.2838 24.8197C60.291 24.8268 60.2951 24.834 60.2951 24.8442V24.9868C60.2951 24.996 60.2992 25 60.3084 25H60.494C60.5043 25 60.5125 25.0041 60.5197 25.0112C60.5258 25.0184 60.5289 25.0275 60.5289 25.0377V25.215C60.5289 25.2242 60.533 25.2282 60.5422 25.2282L60.7279 25.2252C60.7381 25.2252 60.7473 25.2282 60.7545 25.2354C60.7617 25.2425 60.7658 25.2496 60.7658 25.2588V25.4391C60.7658 25.4483 60.7699 25.4524 60.7791 25.4524H60.9504C60.9596 25.4524 60.9637 25.4483 60.9637 25.4391V24.6343L60.9648 24.6373ZM61.7626 26.9286C61.7452 26.9286 61.7319 26.9225 61.7206 26.9113C61.7093 26.9001 61.7042 26.8858 61.7042 26.8705V24.8279C61.7042 24.8065 61.7114 24.7871 61.7247 24.7698L61.8375 24.6231C61.8508 24.6098 61.8672 24.6027 61.8857 24.6027H63.0938C63.1112 24.6027 63.1246 24.6088 63.1359 24.62C63.1471 24.6312 63.1523 24.6455 63.1523 24.6608V26.7034C63.1523 26.7248 63.1451 26.7442 63.1318 26.7615L63.0189 26.9082C63.0056 26.9215 62.9892 26.9286 62.9707 26.9286H61.7626ZM62.9051 24.835C62.9051 24.8217 62.8979 24.8146 62.8846 24.8146H61.9719C61.9585 24.8146 61.9513 24.8217 61.9513 24.835V26.6963C61.9513 26.7096 61.9585 26.7167 61.9719 26.7167H62.8846C62.8979 26.7167 62.9051 26.7096 62.9051 26.6963V24.835ZM63.6445 24.6373C63.6445 24.6149 63.6558 24.6037 63.6784 24.6037H63.8537C63.864 24.6037 63.8732 24.6068 63.8804 24.6129C63.8876 24.619 63.8917 24.6272 63.8917 24.6384V26.7045C63.8917 26.7136 63.8958 26.7177 63.905 26.7177H64.5019C64.5245 26.7177 64.5357 26.7289 64.5357 26.7513V26.895C64.5357 26.9174 64.5245 26.9286 64.5019 26.9286H63.8261C63.8076 26.9286 63.7922 26.9215 63.7779 26.9082L63.665 26.7615C63.6517 26.7442 63.6445 26.7248 63.6445 26.7034V24.6373ZM64.9008 26.9286C64.8834 26.9286 64.8701 26.9225 64.8588 26.9113C64.8475 26.9001 64.8424 26.8858 64.8424 26.8705V24.8279C64.8424 24.8065 64.8496 24.7871 64.8629 24.7698L64.9757 24.6231C64.989 24.6098 65.0054 24.6027 65.0239 24.6027H66.232C66.2494 24.6027 66.2628 24.6088 66.2741 24.62C66.2853 24.6312 66.2905 24.6455 66.2905 24.6608V26.7034C66.2905 26.7248 66.2833 26.7442 66.27 26.7615L66.1571 26.9082C66.1438 26.9215 66.1274 26.9286 66.1089 26.9286H64.9008ZM66.0433 24.835C66.0433 24.8217 66.0361 24.8146 66.0228 24.8146H65.11C65.0967 24.8146 65.0895 24.8217 65.0895 24.835V26.6963C65.0895 26.7096 65.0967 26.7167 65.11 26.7167H66.0228C66.0361 26.7167 66.0433 26.7096 66.0433 26.6963V24.835ZM68.2318 26.7034C68.2318 26.7248 68.2247 26.7442 68.2113 26.7615L68.0985 26.9082C68.0852 26.9215 68.0688 26.9286 68.0503 26.9286H66.8186C66.7961 26.9286 66.7848 26.9174 66.7848 26.895V24.8289C66.7848 24.8075 66.792 24.7881 66.8053 24.7708L66.9181 24.6241C66.9314 24.6109 66.9478 24.6037 66.9663 24.6037H67.7939C67.8042 24.6037 67.8134 24.6068 67.8206 24.6129C67.8278 24.619 67.8319 24.6272 67.8319 24.6373V24.781C67.8319 24.7912 67.8288 24.7993 67.8206 24.8054C67.8134 24.8116 67.8042 24.8146 67.7939 24.8146H67.0453C67.036 24.8146 67.0319 24.8187 67.0319 24.8279V26.7034C67.0319 26.7126 67.036 26.7167 67.0453 26.7167H67.9724C67.9816 26.7167 67.9857 26.7126 67.9857 26.7034L67.9837 25.5471L67.8473 25.6531C67.836 25.6622 67.8247 25.6663 67.8134 25.6663H67.6186C67.6083 25.6663 67.6001 25.6622 67.5939 25.6551C67.5878 25.648 67.5847 25.6388 67.5847 25.6286V25.4921C67.5847 25.4819 67.5878 25.4728 67.5939 25.4656C67.6001 25.4585 67.6083 25.4544 67.6186 25.4544H68.1744C68.1918 25.4544 68.2052 25.4605 68.2164 25.4717C68.2277 25.4829 68.2329 25.4972 68.2329 25.5125V26.7024L68.2318 26.7034ZM68.5908 24.6353C68.5908 24.6261 68.5949 24.618 68.6021 24.6098C68.6092 24.6027 68.6174 24.5986 68.6267 24.5986H68.9559C68.9661 24.5986 68.9743 24.6017 68.9815 24.6098C68.9887 24.617 68.9918 24.6261 68.9918 24.6353V24.7739C68.9918 24.7841 68.9887 24.7922 68.9815 24.7993C68.9743 24.8065 68.9661 24.8095 68.9559 24.8095H68.9169V26.7157H68.9559C68.9661 26.7157 68.9743 26.7187 68.9815 26.7269C68.9887 26.734 68.9918 26.7432 68.9918 26.7523V26.8909C68.9918 26.9011 68.9887 26.9092 68.9815 26.9164C68.9743 26.9235 68.9661 26.9266 68.9559 26.9266H68.6267C68.6174 26.9266 68.6092 26.9235 68.6021 26.9164C68.5949 26.9092 68.5908 26.9011 68.5908 26.8909V26.7523C68.5908 26.7432 68.5949 26.735 68.6021 26.7269C68.6092 26.7197 68.6185 26.7157 68.6277 26.7157H68.6697V24.8095H68.6277C68.6185 24.8095 68.6103 24.8065 68.6021 24.7993C68.5949 24.7922 68.5908 24.7841 68.5908 24.7739V24.6353ZM69.4502 24.8279C69.4502 24.8065 69.4574 24.7871 69.4707 24.7698L69.5835 24.6231C69.5968 24.6098 69.6133 24.6027 69.6317 24.6027H70.4593C70.4696 24.6027 70.4788 24.6058 70.486 24.6119C70.4932 24.618 70.4973 24.6261 70.4973 24.6363V24.78C70.4973 24.7902 70.4942 24.7983 70.486 24.8044C70.4788 24.8105 70.4696 24.8136 70.4593 24.8136H69.7107C69.7015 24.8136 69.6973 24.8177 69.6973 24.8268V25.5736L69.8348 25.4677C69.844 25.4585 69.8553 25.4544 69.8686 25.4544H70.0604C70.0707 25.4544 70.0789 25.4575 70.086 25.4656C70.0922 25.4728 70.0953 25.4819 70.0953 25.4921V25.6286C70.0953 25.6388 70.0922 25.647 70.086 25.6551C70.0799 25.6622 70.0707 25.6663 70.0604 25.6663H69.7312C69.7086 25.6663 69.6973 25.6775 69.6973 25.6999V26.7024C69.6973 26.7116 69.7015 26.7157 69.7107 26.7157H70.5168C70.527 26.7157 70.5363 26.7187 70.5434 26.7248C70.5506 26.7309 70.5547 26.7391 70.5547 26.7493V26.8929C70.5547 26.9031 70.5516 26.9113 70.5434 26.9174C70.5363 26.9235 70.527 26.9266 70.5168 26.9266H69.484C69.4615 26.9266 69.4502 26.9153 69.4502 26.8929V24.8268V24.8279ZM70.7455 26.9286C70.7352 26.9286 70.727 26.9255 70.7188 26.9194C70.7116 26.9133 70.7075 26.9052 70.7075 26.895V26.7513C70.7075 26.7411 70.7116 26.733 70.7188 26.7269C70.726 26.7208 70.7352 26.7177 70.7455 26.7177H71.7392C71.7485 26.7177 71.7526 26.7136 71.7526 26.7045V25.6847C71.7526 25.6785 71.7505 25.6735 71.7454 25.6704C71.7413 25.6663 71.7351 25.6643 71.7279 25.6643H70.8234C70.806 25.6643 70.7926 25.6582 70.7814 25.647C70.7701 25.6358 70.765 25.6215 70.765 25.6062V24.8279C70.765 24.8065 70.7721 24.7871 70.7855 24.7708L70.8983 24.6241C70.9116 24.6109 70.928 24.6037 70.9465 24.6037H71.7167C71.7259 24.6037 71.7341 24.6068 71.7403 24.6129C71.7474 24.619 71.7505 24.6272 71.7505 24.6373V24.781C71.7505 24.7902 71.7474 24.7983 71.7403 24.8044C71.7331 24.8116 71.7259 24.8146 71.7167 24.8146H71.0254C71.0162 24.8146 71.0121 24.8187 71.0121 24.8279V25.4279C71.0121 25.4351 71.0142 25.4401 71.0183 25.4452C71.0224 25.4493 71.0265 25.4524 71.0326 25.4524H71.9402C71.9566 25.4524 71.97 25.4585 71.9813 25.4687C71.9925 25.4799 71.9987 25.4931 71.9987 25.5104V26.7034C71.9987 26.7248 71.9915 26.7442 71.9782 26.7615L71.8654 26.9082C71.852 26.9215 71.8356 26.9286 71.8172 26.9286H70.7444H70.7455Z" fill="black"/>
    <path fill-rule="evenodd" clip-rule="evenodd" d="M9.88281 3.94167L13.9522 0L18.0216 3.94167L13.9522 10.9407L9.88281 3.94167ZM13.9522 21.0593L9.88281 28.0583L13.9522 32L18.0216 28.0583L13.9522 21.0593Z" fill="#6E5DE7"/>
    <path fill-rule="evenodd" clip-rule="evenodd" d="M13.9522 21.0591L9.88281 28.0581L13.9522 31.9998L18.0216 28.0581L13.9522 21.0591Z" fill="#6E5DE7"/>
    <path fill-rule="evenodd" clip-rule="evenodd" d="M9.88281 3.94167L13.9522 0L18.0216 3.94167L13.9522 10.9407L9.88281 3.94167Z" fill="#6E5DE7"/>
    <path fill-rule="evenodd" clip-rule="evenodd" d="M9.54379 18.5298H1.40603L0 24.0007L5.46927 25.5288L9.54379 18.5298Z" fill="#6E5DE7"/>
    <path fill-rule="evenodd" clip-rule="evenodd" d="M22.4348 6.47119L27.9051 8.00039L26.4991 13.4702H18.3613L22.4348 6.47119Z" fill="#6E5DE7"/>
    <path fill-rule="evenodd" clip-rule="evenodd" d="M1.40603 13.4702L0 8.00034L5.46928 6.47217L9.53867 13.4712H1.40603V13.4702ZM18.3666 18.5295L22.436 25.5285L27.9053 24.0003L26.4993 18.5295H18.3666Z" fill="#6E5DE7"/>
  </g>
  <defs>
    <clipPath id="clip0_125_261">
      <rect width="72" height="32" fill="white"/>
    </clipPath>
  </defs>
</svg>