<svg width="100%" preserveAspectRatio="xMidYMid meet" viewBox="0 0 180 30" fill="none" xmlns="http://www.w3.org/2000/svg">
<g clip-path="url(#clip0_86_2661)">
<path d="M15.5527 29.7381V24.0293C21.7617 24.0293 26.5378 18.0293 24.1796 11.6798C23.2841 9.32059 21.3736 7.42739 18.9557 6.58273C12.4482 4.28176 6.29899 8.94195 6.29899 15.0002H0.448242C0.448242 5.35943 10.0005 -2.15514 20.3587 0.990495C24.896 2.35943 28.4781 5.8837 29.8811 10.2818C33.105 20.4177 25.4333 29.7381 15.5527 29.7381Z" fill="#0080FF"/>
<path fill-rule="evenodd" clip-rule="evenodd" d="M15.5523 24.0292H9.73145V18.3496H15.5523V24.0292Z" fill="#0080FF"/>
<path fill-rule="evenodd" clip-rule="evenodd" d="M9.73152 28.3982H5.25391V24.0293H9.73152V28.3982Z" fill="#0080FF"/>
<path fill-rule="evenodd" clip-rule="evenodd" d="M5.25436 24.0294H1.49316V20.3887H5.25436V24.0294Z" fill="#0080FF"/>
<path d="M54.1798 8.79672C52.4485 7.63167 50.2993 7.02002 47.7918 7.02002H42.3291V23.9424H47.7918C50.2993 23.9424 52.4485 23.3307 54.1798 22.0783C55.1351 21.4375 55.8813 20.5055 56.3888 19.3695C56.8963 18.2336 57.1649 16.8938 57.1649 15.3792C57.1649 13.8938 56.8963 12.554 56.3888 11.4181C55.8813 10.3113 55.1351 9.40837 54.1798 8.79672ZM45.5231 9.90352H47.2545C49.1649 9.90352 50.747 10.2822 51.941 10.9812C53.2545 11.7676 53.941 13.253 53.941 15.3792C53.941 17.5928 53.2545 19.1365 51.941 19.9812C50.8067 20.7093 49.2246 21.088 47.2843 21.088H45.553V9.90352H45.5231Z" fill="#0080FF"/>
<path d="M60.9856 6.81592C60.4483 6.81592 60.0006 6.99068 59.6424 7.34019C59.2842 7.6897 59.0752 8.1266 59.0752 8.62174C59.0752 9.14601 59.2543 9.58291 59.6424 9.93242C60.0006 10.2819 60.4483 10.4858 60.9856 10.4858C61.523 10.4858 61.9707 10.3111 62.3289 9.93242C62.6871 9.58291 62.8961 9.11689 62.8961 8.62174C62.8961 8.09747 62.717 7.66058 62.3289 7.34019C61.9707 6.99068 61.4931 6.81592 60.9856 6.81592Z" fill="#0080FF"/>
<path d="M62.4779 12.0293H59.4033V23.971H62.4779V12.0293Z" fill="#0080FF"/>
<path d="M73.6724 13.0198C72.7471 12.2043 71.7023 11.7383 70.5978 11.7383C68.8963 11.7383 67.4933 12.3208 66.3889 13.4276C65.2844 14.5344 64.7471 15.9907 64.7471 17.7092C64.7471 19.3985 65.2844 20.8257 66.3889 21.9907C67.4933 23.0975 68.8963 23.68 70.5978 23.68C71.7918 23.68 72.8068 23.3596 73.6426 22.7189V23.0101C73.6426 24.0004 73.3739 24.7577 72.8366 25.3111C72.2993 25.8354 71.553 26.0975 70.6277 26.0975C69.1948 26.0975 68.3292 25.5441 67.2247 24.1169L65.1351 26.0684L65.1948 26.1558C65.6426 26.7674 66.3292 27.3791 67.2545 27.9616C68.1799 28.5441 69.3142 28.8354 70.6874 28.8354C72.5083 28.8354 74.0008 28.282 75.0754 27.2043C76.1799 26.1266 76.7172 24.6703 76.7172 22.8645V12.0295H73.7023V13.0198H73.6724ZM72.8665 20.0684C72.3292 20.6509 71.6426 20.9422 70.7471 20.9422C69.8515 20.9422 69.165 20.6509 68.6575 20.0684C68.1202 19.4859 67.8516 18.6994 67.8516 17.7383C67.8516 16.7771 68.1202 15.9616 68.6575 15.3791C69.1948 14.7965 69.8814 14.4761 70.7471 14.4761C71.6426 14.4761 72.3292 14.7674 72.8665 15.3791C73.4038 15.9616 73.6724 16.7771 73.6724 17.7383C73.6724 18.6994 73.3739 19.4859 72.8665 20.0684Z" fill="#0080FF"/>
<path d="M82.3891 12.0293H79.3145V23.971H82.3891V12.0293Z" fill="#0080FF"/>
<path d="M80.8958 6.81592C80.3585 6.81592 79.9107 6.99068 79.5525 7.34019C79.1943 7.6897 78.9854 8.1266 78.9854 8.62174C78.9854 9.14601 79.1645 9.58291 79.5525 9.93242C79.9107 10.2819 80.3585 10.4858 80.8958 10.4858C81.4331 10.4858 81.8809 10.3111 82.2391 9.93242C82.5973 9.58291 82.8062 9.11689 82.8062 8.62174C82.8062 8.09747 82.6271 7.66058 82.2391 7.34019C81.8809 6.99068 81.4033 6.81592 80.8958 6.81592Z" fill="#0080FF"/>
<path d="M89.1355 8.82568H86.1206V12.0587H84.3594V14.7966H86.1206V19.748C86.1206 21.2917 86.4489 22.3985 87.0758 23.0393C87.7027 23.6801 88.8071 24.0004 90.3892 24.0004C90.8967 24.0004 91.4041 23.9713 91.8818 23.9422H92.031V21.2043L90.9862 21.2626C90.24 21.2626 89.7624 21.1461 89.5236 20.8839C89.2847 20.6218 89.1653 20.0975 89.1653 19.3111V14.7674H92.031V12.0296H89.1653V8.82568H89.1355Z" fill="#0080FF"/>
<path d="M109.494 7.02002H106.419V23.9424H109.494V7.02002Z" fill="#0080FF"/>
<path d="M140.568 19.6897C140.03 20.3014 139.463 20.8257 139.015 21.0878C138.597 21.3499 138.06 21.4956 137.433 21.4956C136.538 21.4956 135.791 21.1752 135.194 20.5053C134.597 19.8354 134.299 18.9907 134.299 17.9713C134.299 16.9519 134.597 16.1072 135.165 15.4664C135.762 14.7965 136.478 14.4761 137.374 14.4761C138.359 14.4761 139.403 15.0878 140.299 16.1072L142.329 14.214C141.015 12.5247 139.314 11.7383 137.284 11.7383C135.583 11.7383 134.12 12.3499 132.926 13.515C131.732 14.68 131.135 16.1946 131.135 17.9713C131.135 19.748 131.732 21.2334 132.926 22.4276C134.12 23.6218 135.583 24.2043 137.284 24.2043C139.523 24.2043 141.314 23.2723 142.508 21.5538L140.568 19.6897Z" fill="#0080FF"/>
<path d="M153.195 13.6897C152.747 13.1072 152.15 12.6121 151.434 12.2626C150.687 11.913 149.852 11.7383 148.896 11.7383C147.165 11.7383 145.762 12.3499 144.717 13.5732C143.702 14.7965 143.165 16.282 143.165 18.0587C143.165 19.8645 143.732 21.3499 144.867 22.515C145.971 23.6509 147.493 24.2334 149.314 24.2334C151.374 24.2334 153.105 23.4179 154.359 21.7868L154.419 21.6994L152.419 19.8062C152.24 20.0393 151.971 20.2723 151.732 20.5053C151.434 20.7965 151.135 21.0004 150.837 21.146C150.389 21.3791 149.852 21.4664 149.284 21.4664C148.419 21.4664 147.732 21.2334 147.195 20.7383C146.687 20.3014 146.389 19.6897 146.329 18.9325H154.478L154.508 17.8257C154.508 17.0393 154.389 16.3111 154.18 15.6121C153.971 14.9422 153.643 14.3014 153.195 13.6897ZM146.478 16.515C146.628 15.9325 146.896 15.4664 147.284 15.0878C147.702 14.68 148.24 14.4761 148.896 14.4761C149.643 14.4761 150.21 14.68 150.598 15.0878C150.956 15.4664 151.165 15.9325 151.225 16.4859H146.478V16.515Z" fill="#0080FF"/>
<path d="M165.015 12.9326C164.09 12.1462 162.807 11.7676 161.195 11.7676C160.18 11.7676 159.224 12.0006 158.359 12.4084C157.553 12.8161 156.777 13.4569 156.269 14.3307L156.299 14.3598L158.269 16.1948C159.075 14.9423 159.971 14.5054 161.165 14.5054C161.821 14.5054 162.329 14.6802 162.747 15.0006C163.165 15.321 163.344 15.7579 163.344 16.2821V16.8647C162.568 16.6317 161.821 16.5152 161.075 16.5152C159.553 16.5152 158.299 16.8647 157.374 17.5637C156.448 18.2627 155.971 19.2821 155.971 20.5346C155.971 21.6414 156.359 22.5734 157.165 23.2433C157.971 23.8841 158.956 24.2336 160.12 24.2336C161.284 24.2336 162.389 23.7676 163.374 22.9812V23.9715H166.389V16.2821C166.448 14.855 165.971 13.719 165.015 12.9326ZM159.553 19.3986C159.911 19.1656 160.389 19.0491 161.015 19.0491C161.762 19.0491 162.538 19.1948 163.344 19.486V20.6511C162.687 21.2627 161.792 21.554 160.687 21.554C160.15 21.554 159.732 21.4375 159.463 21.2045C159.195 20.9715 159.045 20.7093 159.045 20.3307C159.045 19.952 159.224 19.6317 159.553 19.3986Z" fill="#0080FF"/>
<path d="M178.269 13.1656C177.403 12.2336 176.209 11.7676 174.687 11.7676C173.463 11.7676 172.478 12.1171 171.732 12.787V12.0588H168.717V24.0006H171.791V17.3889C171.791 16.486 172 15.7579 172.448 15.2627C172.896 14.7385 173.463 14.5054 174.269 14.5054C174.956 14.5054 175.493 14.7385 175.881 15.1753C176.269 15.6414 176.478 16.253 176.478 17.0394V23.9423H179.553V17.0394C179.553 15.4084 179.135 14.0977 178.269 13.1656Z" fill="#0080FF"/>
<path d="M102.568 12.9326C101.643 12.1462 100.359 11.7676 98.7473 11.7676C97.7324 11.7676 96.7772 12.0006 95.9115 12.4084C95.1055 12.8161 94.3294 13.4569 93.8219 14.3307L93.8518 14.3598L95.8219 16.1948C96.6279 14.9423 97.5234 14.5054 98.7175 14.5054C99.3742 14.5054 99.8816 14.6802 100.3 15.0006C100.717 15.321 100.897 15.7579 100.897 16.2821V16.8647C100.12 16.6317 99.3742 16.5152 98.6279 16.5152C97.1055 16.5152 95.8518 16.8647 94.9264 17.5637C94.0011 18.2627 93.5234 19.2821 93.5234 20.5346C93.5234 21.6414 93.9115 22.5734 94.7175 23.2433C95.5234 23.8841 96.5085 24.2336 97.6727 24.2336C98.8369 24.2336 99.9414 23.7676 100.926 22.9812V23.9715H103.941V16.2821C103.971 14.855 103.494 13.719 102.568 12.9326ZM97.1055 19.3986C97.4637 19.1656 97.9414 19.0491 98.5682 19.0491C99.3145 19.0491 100.091 19.1948 100.897 19.486V20.6511C100.24 21.2627 99.3443 21.554 98.2399 21.554C97.7025 21.554 97.2846 21.4375 97.016 21.2045C96.7473 20.9715 96.5981 20.7093 96.5981 20.3307C96.5981 19.952 96.7473 19.6317 97.1055 19.3986Z" fill="#0080FF"/>
<path d="M120.657 24.2042C115.732 24.2042 111.702 20.3013 111.702 15.4664C111.702 10.6314 115.702 6.72852 120.657 6.72852C125.583 6.72852 129.613 10.6314 129.613 15.4664C129.613 20.3013 125.583 24.2042 120.657 24.2042ZM120.657 9.84502C117.463 9.84502 114.866 12.379 114.866 15.4955C114.866 18.612 117.463 21.146 120.657 21.146C123.851 21.146 126.448 18.612 126.448 15.4955C126.448 12.379 123.851 9.84502 120.657 9.84502Z" fill="#0080FF"/>
</g>
<defs>
<clipPath id="clip0_86_2661">
<rect width="180" height="30" fill="white"/>
</clipPath>
</defs>
</svg>
