<svg width="100%" preserveAspectRatio="xMidYMid meet" viewBox="0 0 127 37" fill="none" xmlns="http://www.w3.org/2000/svg">
<g clip-path="url(#clip0_86_2711)">
<path d="M27.3693 7.26029C27.3448 7.08147 27.1886 6.98227 27.0589 6.97147C26.9302 6.96067 24.4094 6.92237 24.4094 6.92237C24.4094 6.92237 22.3012 4.87506 22.0929 4.66679C21.8847 4.45853 21.478 4.5214 21.3198 4.56855C21.3178 4.56954 20.9239 4.69135 20.2608 4.89667C20.1498 4.53712 19.9867 4.09504 19.7539 3.651C19.0033 2.21868 17.904 1.46125 16.5758 1.4593C16.5739 1.4593 16.5729 1.4593 16.5709 1.4593C16.4786 1.4593 16.3872 1.46814 16.2949 1.47599C16.2556 1.42884 16.2163 1.38267 16.175 1.33747C15.5964 0.718572 14.8547 0.416979 13.9656 0.443503C12.2504 0.492623 10.542 1.73141 9.15687 3.93196C8.18233 5.48021 7.44061 7.42536 7.23039 8.93134C5.26069 9.54139 3.88338 9.96773 3.85293 9.97758C2.85875 10.29 2.82732 10.3204 2.69764 11.2577C2.60137 11.9659 0 32.0813 0 32.0813L21.8002 35.8517L31.2488 33.5028C31.2488 33.5028 27.3939 7.43911 27.3693 7.26029ZM19.1694 5.23461C18.6674 5.38983 18.0966 5.56666 17.4776 5.75823C17.4649 4.88979 17.3617 3.68146 16.957 2.63717C18.2587 2.88376 18.8992 4.35636 19.1694 5.23461ZM16.3371 6.11188C15.1946 6.46552 13.9479 6.8516 12.6974 7.23869C13.0491 5.89183 13.7161 4.55087 14.5354 3.67163C14.84 3.3445 15.2663 2.98003 15.7712 2.77176C16.2457 3.76201 16.3489 5.16388 16.3371 6.11188ZM14 1.58504C14.4028 1.5762 14.7417 1.66461 15.0315 1.8552C14.5678 2.09588 14.1198 2.44168 13.6994 2.8926C12.6099 4.06164 11.7749 5.87611 11.4419 7.62673C10.4035 7.94795 9.38768 8.26334 8.45245 8.55216C9.0429 5.79654 11.3525 1.66166 14 1.58504Z" fill="#95BF47"/>
<path d="M27.0595 6.97247C26.9308 6.96167 24.41 6.92337 24.41 6.92337C24.41 6.92337 22.3018 4.87605 22.0936 4.66779C22.016 4.59018 21.9108 4.5499 21.8008 4.5332L21.8018 35.8508L31.2494 33.5029C31.2494 33.5029 27.3945 7.44011 27.37 7.26129C27.3454 7.08247 27.1882 6.98327 27.0595 6.97247Z" fill="#5E8E3E"/>
<path d="M16.5638 11.8304L15.4665 15.9357C15.4665 15.9357 14.2424 15.3787 12.7914 15.4701C10.6636 15.6047 10.6409 16.9466 10.6626 17.2836C10.7785 19.1197 15.6089 19.5205 15.8801 23.8214C16.0932 27.2047 14.0852 29.5192 11.1921 29.702C7.71934 29.921 5.80762 27.8727 5.80762 27.8727L6.54344 24.7429C6.54344 24.7429 8.4679 26.1949 10.0083 26.0976C11.0143 26.0337 11.3738 25.2154 11.3375 24.6368C11.1862 22.2417 7.2527 22.3832 7.00418 18.4477C6.79491 15.1361 8.96996 11.7803 13.7689 11.4777C15.6177 11.3588 16.5638 11.8304 16.5638 11.8304Z" fill="white"/>
<path d="M43.6916 20.4272C42.6052 19.8376 42.0468 19.3407 42.0468 18.6577C42.0468 17.7885 42.8224 17.2302 44.0336 17.2302C45.4435 17.2302 46.7024 17.8197 46.7024 17.8197L47.6953 14.7777C47.6953 14.7777 46.7823 14.0635 44.095 14.0635C40.3553 14.0635 37.7635 16.2051 37.7635 19.216C37.7635 20.9231 38.9736 22.2268 40.5882 23.1573C41.8919 23.9017 42.3576 24.4299 42.3576 25.2055C42.3576 26.0123 41.7058 26.6641 40.4956 26.6641C38.692 26.6641 36.9888 25.7326 36.9888 25.7326L35.9336 28.7746C35.9336 28.7746 37.5072 29.8299 40.1546 29.8299C44.0034 29.8299 46.7658 27.9366 46.7658 24.5224C46.7648 22.6926 45.3685 21.3888 43.6916 20.4272Z" fill="black"/>
<path d="M59.0244 14.0331C57.1311 14.0331 55.6413 14.9334 54.4934 16.2986L54.4311 16.2673L56.0758 7.67041H51.7924L47.6338 29.551H51.9171L53.3446 22.0717C53.9029 19.247 55.3616 17.5097 56.7277 17.5097C57.6894 17.5097 58.0626 18.1615 58.0626 19.093C58.0626 19.6826 58.0002 20.3968 57.8764 20.9863L56.2629 29.5521H60.5465L62.2219 20.7066C62.4084 19.7751 62.533 18.6585 62.533 17.9131C62.5312 15.4917 61.2588 14.0331 59.0244 14.0331Z" fill="black"/>
<path d="M72.2141 14.0332C67.0614 14.0332 63.6484 18.6888 63.6484 23.8715C63.6484 27.1922 65.6963 29.861 69.5454 29.861C74.6042 29.861 78.0183 25.3302 78.0183 20.0227C78.0183 16.9505 76.2178 14.0332 72.2141 14.0332ZM70.1037 26.5725C68.6448 26.5725 68.0239 25.3311 68.0239 23.7789C68.0239 21.3274 69.2969 17.3237 71.6245 17.3237C73.1454 17.3237 73.6411 18.6274 73.6411 19.9C73.6411 22.5376 72.3699 26.5725 70.1037 26.5725Z" fill="black"/>
<path d="M88.9739 14.0332C86.0827 14.0332 84.442 16.5783 84.442 16.5783H84.3806L84.6291 14.2817H80.8426C80.6567 15.8339 80.3144 18.1919 79.9739 19.9613L76.9941 35.6342H81.2775L82.4561 29.3027H82.5499C82.5499 29.3027 83.4287 29.8611 85.064 29.8611C90.0916 29.8611 93.3812 24.7095 93.3812 19.4946C93.3812 16.6095 92.1082 14.0332 88.9739 14.0332ZM84.877 26.6339C83.7651 26.6339 83.1071 26.0132 83.1071 26.0132L83.8212 22.0095C84.3181 19.3407 85.7144 17.5712 87.2046 17.5712C88.5082 17.5712 88.9113 18.7814 88.9113 19.9302C88.9113 22.6925 87.2665 26.6339 84.877 26.6339Z" fill="black"/>
<path d="M99.4955 7.8877C98.1304 7.8877 97.0439 8.97413 97.0439 10.3704C97.0439 11.643 97.8507 12.5121 99.0611 12.5121H99.1231C100.458 12.5121 101.606 11.6117 101.637 10.0294C101.637 8.78799 100.799 7.8877 99.4955 7.8877Z" fill="black"/>
<path d="M93.5059 29.5509H97.7881L100.706 14.375H96.3918L93.5059 29.5509Z" fill="black"/>
<path d="M111.601 14.3442H108.621L108.776 13.63C109.024 12.1713 109.893 10.8676 111.321 10.8676C112.083 10.8676 112.686 11.0849 112.686 11.0849L113.524 7.73306C113.524 7.73306 112.779 7.36084 111.196 7.36084C109.675 7.36084 108.155 7.79538 107.006 8.78827C105.547 10.0297 104.865 11.8293 104.524 13.63L104.4 14.3442H102.413L101.792 17.5723H103.779L101.514 29.5523H105.797L108.063 17.5723H111.011L111.601 14.3442Z" fill="black"/>
<path d="M121.904 14.375C121.904 14.375 119.227 21.1206 118.024 24.8028H117.962C117.88 23.617 116.907 14.375 116.907 14.375H112.406L114.983 28.3096C115.046 28.6195 115.015 28.8065 114.89 29.0238C114.393 29.9855 113.555 30.917 112.562 31.6001C111.755 32.1895 110.855 32.5618 110.142 32.8102L111.321 36.4417C112.19 36.2557 113.989 35.5414 115.51 34.114C117.466 32.2831 119.266 29.4584 121.127 25.6096L126.373 14.374H121.904V14.375Z" fill="black"/>
</g>
<defs>
<clipPath id="clip0_86_2711">
<rect width="126.885" height="36" fill="white" transform="translate(0 0.441895)"/>
</clipPath>
</defs>
</svg>
