<svg preserveAspectRatio="xMidYMid meet" viewBox="0 0 27 26" fill="none" xmlns="http://www.w3.org/2000/svg">
<g clip-path="url(#clip0_333_3429)">
<path d="M7 12.5737V19.4998H13.9261L12.4817 18.0554H8.44444V14.0182L7 12.5737Z" fill="#6E5DE7"/>
<path d="M25.6838 23.3208L23.611 21.2191V23.1114H3.38879V20.1141H4.83324V18.9586H3.38879V14.1558H4.83324V13.0002H3.38879V8.37802H4.83324V7.22246H3.38879V3.18524L14.901 14.6325V12.5958L3.17935 0.931906C3.07833 0.830052 2.94927 0.760588 2.80862 0.732371C2.66797 0.704154 2.5221 0.718463 2.38961 0.773472C2.25712 0.828481 2.14402 0.921699 2.06472 1.04124C1.98542 1.16078 1.94351 1.30123 1.94435 1.44468V23.8336C1.94435 24.0251 2.02044 24.2088 2.15588 24.3443C2.29133 24.4797 2.47503 24.5558 2.66657 24.5558H25.171C25.3145 24.5566 25.4549 24.5147 25.5745 24.4354C25.694 24.3561 25.7872 24.243 25.8422 24.1105C25.8972 23.978 25.9115 23.8322 25.8833 23.6915C25.8551 23.5509 25.7856 23.4218 25.6838 23.3208Z" fill="#6E5DE7"/>
<path d="M17.8331 21.6666H20.722C21.1051 21.6666 21.4725 21.5144 21.7434 21.2435C22.0143 20.9726 22.1664 20.6052 22.1664 20.2221V6.28322L20.5053 3.22822C20.3769 3.00565 20.1913 2.82138 19.9679 2.69442C19.7445 2.56747 19.4912 2.50242 19.2342 2.506C18.9714 2.50808 18.7142 2.58182 18.4902 2.71927C18.2662 2.85671 18.084 3.05266 17.9631 3.286L16.3887 6.29767V20.2221C16.3887 20.6052 16.5409 20.9726 16.8117 21.2435C17.0826 21.5144 17.45 21.6666 17.8331 21.6666ZM17.8331 6.64433L19.2342 3.92155L20.722 6.65156V17.3332H17.8331V6.64433ZM17.8331 18.5104H20.722V20.2727H17.8331V18.5104Z" fill="#6E5DE7"/>
</g>
<defs>
<clipPath id="clip0_333_3429">
<rect width="26" height="26" fill="white" transform="translate(0.5)"/>
</clipPath>
</defs>
</svg>
