<svg preserveAspectRatio="xMidYMid meet" viewBox="0 0 26 26" fill="none" xmlns="http://www.w3.org/2000/svg">
<path d="M8.39615 17.3333C8.7553 17.3333 9.09973 17.1907 9.35369 16.9367C9.60765 16.6827 9.75032 16.3383 9.75032 15.9792C9.75032 15.62 9.60765 15.2756 9.35369 15.0216C9.09973 14.7677 8.7553 14.625 8.39615 14.625C8.037 14.625 7.69256 14.7677 7.43861 15.0216C7.18465 15.2756 7.04198 15.62 7.04198 15.9792C7.04198 16.3383 7.18465 16.6827 7.43861 16.9367C7.69256 17.1907 8.037 17.3333 8.39615 17.3333ZM14.3545 15.9792C14.3545 16.3383 14.2118 16.6827 13.9579 16.9367C13.7039 17.1907 13.3595 17.3333 13.0003 17.3333C12.6412 17.3333 12.2967 17.1907 12.0428 16.9367C11.7888 16.6827 11.6461 16.3383 11.6461 15.9792C11.6461 15.62 11.7888 15.2756 12.0428 15.0216C12.2967 14.7677 12.6412 14.625 13.0003 14.625C13.3595 14.625 13.7039 14.7677 13.9579 15.0216C14.2118 15.2756 14.3545 15.62 14.3545 15.9792ZM17.6045 17.3333C17.9636 17.3333 18.3081 17.1907 18.562 16.9367C18.816 16.6827 18.9586 16.3383 18.9586 15.9792C18.9586 15.62 18.816 15.2756 18.562 15.0216C18.3081 14.7677 17.9636 14.625 17.6045 14.625C17.2453 14.625 16.9009 14.7677 16.6469 15.0216C16.393 15.2756 16.2503 15.62 16.2503 15.9792C16.2503 16.3383 16.393 16.6827 16.6469 16.9367C16.9009 17.1907 17.2453 17.3333 17.6045 17.3333ZM5.2794 3.93575C5.45728 3.72122 5.68027 3.54854 5.93249 3.43001C6.18471 3.31149 6.45996 3.25002 6.73865 3.25H19.262C19.8264 3.25 20.3616 3.50133 20.7223 3.93575L24.6006 8.61575C25.333 9.49758 24.7057 10.8333 23.5585 10.8333H22.7503V20.3125C22.7503 21.0308 22.465 21.7197 21.9571 22.2276C21.4492 22.7355 20.7603 23.0208 20.042 23.0208H5.95865C5.24035 23.0208 4.55148 22.7355 4.04357 22.2276C3.53566 21.7197 3.25032 21.0308 3.25032 20.3125V10.8333H2.44215C1.29598 10.8333 0.668733 9.49758 1.39998 8.61466L5.2794 3.93575ZM6.73865 4.875C6.69895 4.87501 6.65974 4.88376 6.6238 4.9006C6.58786 4.91745 6.55606 4.942 6.53065 4.9725L3.01848 9.20833H22.9821L19.4711 4.9725C19.4455 4.94186 19.4136 4.91723 19.3774 4.90037C19.3413 4.88352 19.3019 4.87485 19.262 4.875H6.73865ZM4.87532 10.8333V20.3125C4.87532 20.5998 4.98945 20.8754 5.19262 21.0785C5.39578 21.2817 5.67133 21.3958 5.95865 21.3958H20.042C20.3293 21.3958 20.6049 21.2817 20.808 21.0785C21.0112 20.8754 21.1253 20.5998 21.1253 20.3125V10.8333H4.87532Z" fill="#6E5DE7"/>
</svg>
