<svg preserveAspectRatio="xMidYMid meet" viewBox="0 0 22 22" fill="none" xmlns="http://www.w3.org/2000/svg">
<path opacity="0.4" d="M18.3218 9.43725H15.8357C13.797 9.43725 12.1368 7.77703 12.1368 5.73832V3.2523C12.1368 2.77919 11.7497 2.39209 11.2766 2.39209H7.62929C4.97983 2.39209 2.83789 4.11252 2.83789 7.18349V14.805C2.83789 17.876 4.97983 19.5964 7.62929 19.5964H14.3906C17.04 19.5964 19.182 17.876 19.182 14.805V10.2975C19.182 9.82434 18.7949 9.43725 18.3218 9.43725Z" fill="#6E5DE7"/>
<path d="M14.2789 2.57289C13.9262 2.2202 13.3154 2.46106 13.3154 2.95139V5.95354C13.3154 7.20945 14.3821 8.25031 15.681 8.25031C16.4982 8.25891 17.6337 8.25891 18.6057 8.25891C19.0961 8.25891 19.3541 7.68257 19.0101 7.33848C17.7713 6.09117 15.552 3.84601 14.2789 2.57289Z" fill="#6E5DE7"/>
<path d="M12.3006 12.4998H7.1393C6.78661 12.4998 6.49414 12.2073 6.49414 11.8546C6.49414 11.5019 6.78661 11.2095 7.1393 11.2095H12.3006C12.6533 11.2095 12.9458 11.5019 12.9458 11.8546C12.9458 12.2073 12.6533 12.4998 12.3006 12.4998Z" fill="#6E5DE7"/>
<path d="M10.5802 15.9407H7.1393C6.78661 15.9407 6.49414 15.6482 6.49414 15.2956C6.49414 14.9429 6.78661 14.6504 7.1393 14.6504H10.5802C10.9328 14.6504 11.2253 14.9429 11.2253 15.2956C11.2253 15.6482 10.9328 15.9407 10.5802 15.9407Z" fill="#6E5DE7"/>
</svg>
