<svg preserveAspectRatio="xMidYMid meet" viewBox="0 0 28 25" fill="none" xmlns="http://www.w3.org/2000/svg">
	<path fill-rule="evenodd" clip-rule="evenodd" d="M20.3237 0.5C24.4862 0.5 27.625 3.89625 27.625 8.4V16.985C27.625 19.29 26.81 21.3725 25.3288 22.85C24 24.1737 22.2763 24.875 20.3438 24.875H8.0275C6.09875 24.875 4.37625 24.175 3.04625 22.85C1.565 21.3725 0.75 19.29 0.75 16.985V8.4C0.75 3.89625 3.88875 0.5 8.05125 0.5H20.3237ZM20.3237 2.375H8.05125C4.9075 2.375 2.625 4.90875 2.625 8.4V16.985C2.625 18.7887 3.245 20.4 4.37 21.5212C5.34 22.49 6.60625 23 8.03125 23H20.3237C20.3263 22.9975 20.3363 23 20.3438 23C21.77 23 23.035 22.49 24.005 21.5212C25.1313 20.4 25.75 18.7887 25.75 16.985V8.4C25.75 4.90875 23.4675 2.375 20.3237 2.375ZM22.2937 8.161C22.62 8.56225 22.5588 9.15225 22.1575 9.47975L16.6025 13.9948C15.9 14.5522 15.06 14.831 14.2213 14.831C13.385 14.831 12.5513 14.5547 11.8538 14.0022L6.2475 9.48225C5.84375 9.15725 5.78125 8.566 6.105 8.1635C6.43125 7.76225 7.02125 7.6985 7.42375 8.02225L13.025 12.5372C13.7287 13.0947 14.72 13.0948 15.4288 12.5323L20.9737 8.02475C21.3762 7.696 21.9662 7.7585 22.2937 8.161Z" fill="currentColor"/>
</svg>
