<svg preserveAspectRatio="xMidYMid meet" viewBox="0 0 18 18" fill="none" xmlns="http://www.w3.org/2000/svg">
<path opacity="0.4" d="M11.9242 3.41064H6.07145C3.52923 3.41064 2.01367 4.9262 2.01367 7.46842V11.9173C2.01367 14.4665 3.52923 15.9821 6.07145 15.9821H11.9172C14.4594 15.9821 15.9749 14.4665 15.9749 11.9243V7.46842C15.9819 4.9262 14.4664 3.41064 11.9242 3.41064Z" fill="white"/>
<path d="M15.493 9.15869H13.0626C12.3781 9.15869 11.7705 9.53583 11.4632 10.1504L10.8765 11.3098C10.7368 11.5892 10.4575 11.7638 10.1502 11.7638H7.85939C7.64288 11.7638 7.33558 11.7149 7.13304 11.3098L6.54637 10.1574C6.23907 9.5498 5.62447 9.16568 4.94701 9.16568H2.50256C2.23018 9.16568 2.01367 9.38218 2.01367 9.65456V11.9314C2.01367 14.4666 3.53621 15.9822 6.07843 15.9822H11.9311C14.3267 15.9822 15.8003 14.6692 15.9819 12.3365V9.64758C15.9819 9.38218 15.7654 9.15869 15.493 9.15869Z" fill="white"/>
<path d="M10.765 5.13595C10.5624 4.93341 10.2272 4.93341 10.0247 5.13595L9.5218 5.63881V2.01404C9.5218 1.72769 9.28434 1.49023 8.99799 1.49023C8.71164 1.49023 8.47418 1.72769 8.47418 2.01404V5.63881L7.97132 5.13595C7.76878 4.93341 7.43355 4.93341 7.23101 5.13595C7.02847 5.33849 7.02847 5.67373 7.23101 5.87627L8.62783 7.27309C8.63482 7.28008 8.6418 7.28008 8.6418 7.28706C8.6837 7.32897 8.73958 7.36389 8.79545 7.39182C8.86529 7.41278 8.92815 7.42674 8.99799 7.42674C9.06783 7.42674 9.13069 7.41278 9.19355 7.38484C9.2564 7.3569 9.31228 7.32198 9.36815 7.27309L10.765 5.87627C10.9675 5.67373 10.9675 5.33849 10.765 5.13595Z" fill="white"/>
</svg>
