<svg preserveAspectRatio="xMidYMid meet" viewBox="0 0 40 41" fill="none" xmlns="http://www.w3.org/2000/svg">
<g clip-path="url(#clip0_311_287)">
<path d="M19.9997 3.57471C24.528 3.57471 25.093 3.59137 26.8697 3.67471C28.6447 3.75804 29.853 4.03637 30.9163 4.44971C32.0163 4.87304 32.943 5.44637 33.8697 6.37137C34.7172 7.20453 35.3729 8.21236 35.7913 9.32471C36.203 10.3864 36.483 11.5964 36.5663 13.3714C36.6447 15.148 36.6663 15.713 36.6663 20.2414C36.6663 24.7697 36.6497 25.3347 36.5663 27.1114C36.483 28.8864 36.203 30.0947 35.7913 31.158C35.3741 32.271 34.7182 33.2791 33.8697 34.1114C33.0363 34.9586 32.0285 35.6143 30.9163 36.033C29.8547 36.4447 28.6447 36.7247 26.8697 36.808C25.093 36.8864 24.528 36.908 19.9997 36.908C15.4713 36.908 14.9063 36.8914 13.1297 36.808C11.3547 36.7247 10.1463 36.4447 9.08301 36.033C7.97022 35.6155 6.96222 34.9596 6.12967 34.1114C5.28202 33.2784 4.62623 32.2705 4.20801 31.158C3.79467 30.0964 3.51634 28.8864 3.43301 27.1114C3.35467 25.3347 3.33301 24.7697 3.33301 20.2414C3.33301 15.713 3.34967 15.148 3.43301 13.3714C3.51634 11.5947 3.79467 10.388 4.20801 9.32471C4.62507 8.21167 5.28101 7.20358 6.12967 6.37137C6.96246 5.52343 7.97039 4.86759 9.08301 4.44971C10.1463 4.03637 11.353 3.75804 13.1297 3.67471C14.9063 3.59637 15.4713 3.57471 19.9997 3.57471ZM19.9997 11.908C17.7895 11.908 15.6699 12.786 14.1071 14.3488C12.5443 15.9116 11.6663 18.0312 11.6663 20.2414C11.6663 22.4515 12.5443 24.5711 14.1071 26.1339C15.6699 27.6967 17.7895 28.5747 19.9997 28.5747C22.2098 28.5747 24.3294 27.6967 25.8922 26.1339C27.455 24.5711 28.333 22.4515 28.333 20.2414C28.333 18.0312 27.455 15.9116 25.8922 14.3488C24.3294 12.786 22.2098 11.908 19.9997 11.908ZM30.833 11.4914C30.833 10.9388 30.6135 10.4089 30.2228 10.0182C29.8321 9.62753 29.3022 9.40804 28.7497 9.40804C28.1971 9.40804 27.6672 9.62753 27.2765 10.0182C26.8858 10.4089 26.6663 10.9388 26.6663 11.4914C26.6663 12.0439 26.8858 12.5738 27.2765 12.9645C27.6672 13.3552 28.1971 13.5747 28.7497 13.5747C29.3022 13.5747 29.8321 13.3552 30.2228 12.9645C30.6135 12.5738 30.833 12.0439 30.833 11.4914ZM19.9997 15.2414C21.3258 15.2414 22.5975 15.7682 23.5352 16.7058C24.4729 17.6435 24.9997 18.9153 24.9997 20.2414C24.9997 21.5675 24.4729 22.8392 23.5352 23.7769C22.5975 24.7146 21.3258 25.2414 19.9997 25.2414C18.6736 25.2414 17.4018 24.7146 16.4641 23.7769C15.5265 22.8392 14.9997 21.5675 14.9997 20.2414C14.9997 18.9153 15.5265 17.6435 16.4641 16.7058C17.4018 15.7682 18.6736 15.2414 19.9997 15.2414Z" fill="#909090"/>
</g>
<defs>
<clipPath id="clip0_311_287">
<rect width="40" height="40" fill="white" transform="translate(0 0.241394)"/>
</clipPath>
</defs>
</svg>
