<svg preserveAspectRatio="xMidYMid meet" viewBox="0 0 26 26" fill="none" xmlns="http://www.w3.org/2000/svg">
<path d="M15.2519 1.625C15.4239 1.62501 15.5915 1.67961 15.7305 1.78094C15.8695 1.88227 15.9727 2.02511 16.0254 2.18888L16.9191 4.966C17.2945 5.14963 17.6536 5.356 17.9965 5.58837L20.85 4.97413C21.0182 4.9382 21.1936 4.95661 21.3507 5.0267C21.5078 5.09679 21.6386 5.21494 21.7243 5.36413L23.9765 9.2625C24.0625 9.4116 24.0989 9.58417 24.0805 9.75531C24.0621 9.92646 23.9899 10.0873 23.8741 10.2147L21.916 12.376C21.9445 12.7904 21.9445 13.2063 21.916 13.6208L23.8741 15.7852C23.9899 15.9127 24.0621 16.0735 24.0805 16.2447C24.0989 16.4158 24.0625 16.5884 23.9765 16.7375L21.7243 20.6375C21.6384 20.7864 21.5074 20.9042 21.3503 20.974C21.1933 21.0438 21.0181 21.0619 20.85 21.0259L17.9965 20.4116C17.6553 20.6424 17.2945 20.8504 16.9208 21.034L16.0254 23.8111C15.9727 23.9749 15.8695 24.1177 15.7305 24.2191C15.5915 24.3204 15.4239 24.375 15.2519 24.375H10.7474C10.5754 24.375 10.4078 24.3204 10.2688 24.2191C10.1298 24.1177 10.0265 23.9749 9.97388 23.8111L9.08175 21.0356C8.70738 20.8526 8.34629 20.6435 8.00113 20.41L5.14925 21.0259C4.98101 21.0618 4.8057 21.0434 4.64859 20.9733C4.49148 20.9032 4.36067 20.7851 4.275 20.6359L2.02275 16.7375C1.93675 16.5884 1.90032 16.4158 1.91872 16.2447C1.93712 16.0735 2.00939 15.9127 2.12513 15.7852L4.08325 13.6208C4.05489 13.2074 4.05489 12.7926 4.08325 12.3792L2.12513 10.2147C2.00939 10.0873 1.93712 9.92646 1.91872 9.75531C1.90032 9.58417 1.93675 9.4116 2.02275 9.2625L4.275 5.3625C4.36091 5.21361 4.49182 5.0958 4.64891 5.02601C4.806 4.95622 4.98118 4.93806 5.14925 4.97413L8.00113 5.59C8.34563 5.35763 8.70638 5.148 9.08175 4.96438L9.9755 2.18888C10.028 2.02563 10.1307 1.88318 10.2691 1.78189C10.4074 1.68061 10.5743 1.62569 10.7458 1.625H15.2503H15.2519ZM14.6571 3.25H11.3421L10.4191 6.12138L9.79675 6.42525C9.49079 6.57497 9.19544 6.74545 8.91275 6.9355L8.3375 7.3255L5.3865 6.6885L3.729 9.5615L5.75213 11.8007L5.70338 12.4897C5.68003 12.8295 5.68003 13.1705 5.70338 13.5103L5.75213 14.1993L3.72575 16.4385L5.38488 19.3115L8.33588 18.6761L8.91113 19.0645C9.19381 19.2545 9.48917 19.425 9.79513 19.5747L10.4175 19.8786L11.3421 22.75H14.6604L15.5866 19.877L16.2074 19.5747C16.513 19.4254 16.8078 19.2549 17.0898 19.0645L17.6634 18.6761L20.616 19.3115L22.2735 16.4385L20.2488 14.1993L20.2975 13.5103C20.3209 13.1699 20.3209 12.8284 20.2975 12.4881L20.2488 11.7991L22.2751 9.5615L20.616 6.6885L17.6634 7.32225L17.0898 6.9355C16.8079 6.74507 16.513 6.57457 16.2074 6.42525L15.5866 6.123L14.6588 3.25H14.6571ZM12.9996 8.125C14.2926 8.125 15.5325 8.63861 16.4468 9.55285C17.361 10.4671 17.8746 11.7071 17.8746 13C17.8746 14.2929 17.361 15.5329 16.4468 16.4471C15.5325 17.3614 14.2926 17.875 12.9996 17.875C11.7067 17.875 10.4667 17.3614 9.55248 16.4471C8.63824 15.5329 8.12463 14.2929 8.12463 13C8.12463 11.7071 8.63824 10.4671 9.55248 9.55285C10.4667 8.63861 11.7067 8.125 12.9996 8.125ZM12.9996 9.75C12.1377 9.75 11.311 10.0924 10.7015 10.7019C10.092 11.3114 9.74963 12.138 9.74963 13C9.74963 13.862 10.092 14.6886 10.7015 15.2981C11.311 15.9076 12.1377 16.25 12.9996 16.25C13.8616 16.25 14.6882 15.9076 15.2977 15.2981C15.9072 14.6886 16.2496 13.862 16.2496 13C16.2496 12.138 15.9072 11.3114 15.2977 10.7019C14.6882 10.0924 13.8616 9.75 12.9996 9.75Z" fill="#6E5DE7"/>
</svg>
