<svg xmlns="http://www.w3.org/2000/svg" width="184" height="84" viewBox="0 0 184 84" fill="none">
  <g clip-path="url(#clip0_501_341)">
    <path d="M98.8615 13.8334V20.3669H92.8571V58.4151H86.3364V20.3643H80.3896V13.8308H98.8615V13.8334ZM120.35 13.8334H126.871V58.4151H120.35V40.8235H122.352L122.237 40.7657L120.35 39.6759L114.917 36.5247V58.4151H108.396V13.8334H114.917V29.3636L120.35 32.5148V13.8334ZM148.93 13.8334L154.877 17.2709V54.9751L148.93 58.4125H136.405V13.8334H148.93ZM148.359 42.4858V21.5119L146.357 20.3669H142.926V51.8842H146.357L148.359 50.7393V42.4884V42.4858ZM182.886 27.7014H176.365V20.3669H170.932V51.8842H176.365V32.5122L182.886 36.2937V43.3996V51.8816V58.4151H164.414V13.8334H182.886V20.3669V27.7014Z" fill="#6E5DE7"/>
    <path d="M138.648 70.0798C138.648 70.1376 138.619 70.1665 138.562 70.1665H138.114C138.087 70.1665 138.066 70.1586 138.045 70.1429C138.027 70.1271 138.017 70.1061 138.017 70.0798V64.7543C138.017 64.7307 138.006 64.7202 137.983 64.7202H136.78C136.753 64.7202 136.732 64.7123 136.711 64.6965C136.693 64.6808 136.683 64.6598 136.683 64.6335V64.2632C136.683 64.237 136.693 64.216 136.711 64.2002C136.73 64.1845 136.753 64.1766 136.78 64.1766H139.888C139.914 64.1766 139.938 64.1845 139.956 64.2002C139.974 64.216 139.985 64.237 139.985 64.2632V64.6335C139.985 64.6598 139.977 64.6808 139.956 64.6965C139.938 64.7123 139.914 64.7202 139.888 64.7202H138.682C138.659 64.7202 138.648 64.7307 138.648 64.7543V70.0798ZM140.653 64.7543C140.653 64.6992 140.672 64.6493 140.706 64.6046L140.994 64.2265C141.028 64.1923 141.07 64.174 141.117 64.174H143.232C143.258 64.174 143.282 64.1818 143.3 64.1976C143.319 64.2133 143.329 64.2344 143.329 64.2606V64.6309C143.329 64.6571 143.321 64.6782 143.3 64.6939C143.282 64.7097 143.258 64.7175 143.232 64.7175H141.319C141.295 64.7175 141.285 64.728 141.285 64.7517V66.6765L141.636 66.4034C141.66 66.3798 141.688 66.3693 141.723 66.3693H142.213C142.239 66.3693 142.26 66.3772 142.278 66.3982C142.294 66.4166 142.302 66.4402 142.302 66.4665V66.8183C142.302 66.8446 142.294 66.8656 142.278 66.8866C142.262 66.905 142.239 66.9155 142.213 66.9155H141.371C141.314 66.9155 141.285 66.9444 141.285 67.0022V69.5862C141.285 69.6098 141.295 69.6203 141.319 69.6203H143.379C143.405 69.6203 143.429 69.6282 143.447 69.6439C143.465 69.6597 143.476 69.6807 143.476 69.7069V70.0772C143.476 70.1035 143.468 70.1245 143.447 70.1402C143.429 70.156 143.405 70.1639 143.379 70.1639H140.74C140.682 70.1639 140.653 70.135 140.653 70.0772V64.7517V64.7543ZM144.26 64.7543C144.26 64.6992 144.278 64.6493 144.312 64.6046L144.6 64.2265C144.634 64.1923 144.676 64.174 144.723 64.174H146.838C146.865 64.174 146.888 64.1818 146.907 64.1976C146.925 64.2133 146.935 64.2344 146.935 64.2606V64.6309C146.935 64.6571 146.928 64.6782 146.907 64.6939C146.888 64.7097 146.865 64.7175 146.838 64.7175H144.925C144.902 64.7175 144.891 64.728 144.891 64.7517V69.5862C144.891 69.6098 144.902 69.6203 144.925 69.6203H146.985C147.011 69.6203 147.035 69.6282 147.053 69.6439C147.072 69.6597 147.082 69.6807 147.082 69.7069V70.0772C147.082 70.1035 147.074 70.1245 147.053 70.1402C147.035 70.156 147.011 70.1639 146.985 70.1639H144.346C144.288 70.1639 144.26 70.135 144.26 70.0772V64.7517V64.7543ZM144.26 64.7543C144.26 64.6992 144.278 64.6493 144.312 64.6046L144.6 64.2265C144.634 64.1923 144.676 64.174 144.723 64.174H146.838C146.865 64.174 146.888 64.1818 146.907 64.1976C146.925 64.2133 146.935 64.2344 146.935 64.2606V64.6309C146.935 64.6571 146.928 64.6782 146.907 64.6939C146.888 64.7097 146.865 64.7175 146.838 64.7175H144.925C144.902 64.7175 144.891 64.728 144.891 64.7517V69.5862C144.891 69.6098 144.902 69.6203 144.925 69.6203H146.985C147.011 69.6203 147.035 69.6282 147.053 69.6439C147.072 69.6597 147.082 69.6807 147.082 69.7069V70.0772C147.082 70.1035 147.074 70.1245 147.053 70.1402C147.035 70.156 147.011 70.1639 146.985 70.1639H144.346C144.288 70.1639 144.26 70.135 144.26 70.0772V64.7517V64.7543ZM151.019 64.2632C151.019 64.237 151.029 64.216 151.048 64.1976C151.066 64.1818 151.089 64.174 151.116 64.174H151.564C151.621 64.174 151.65 64.2028 151.65 64.2606V70.0798C151.65 70.1035 151.642 70.1245 151.627 70.1402C151.611 70.1586 151.59 70.1665 151.561 70.1665H151.113C151.087 70.1665 151.066 70.1586 151.045 70.1402C151.024 70.1219 151.016 70.1009 151.016 70.0798V66.5951L150.673 66.8709C150.641 66.8945 150.607 66.905 150.576 66.905H149.024C148.99 66.905 148.959 66.8945 148.938 66.8709L148.587 66.5951V70.0798C148.587 70.1035 148.579 70.1245 148.558 70.1402C148.539 70.1586 148.516 70.1665 148.49 70.1665H148.041C148.018 70.1665 147.997 70.1586 147.981 70.1402C147.965 70.1219 147.955 70.1009 147.955 70.0798V64.2606C147.955 64.2344 147.963 64.2133 147.981 64.195C147.999 64.1792 148.018 64.1713 148.041 64.1713H148.49C148.516 64.1713 148.539 64.1792 148.558 64.195C148.576 64.2107 148.587 64.2317 148.587 64.2606V66.2643C148.587 66.2905 148.594 66.3142 148.613 66.3325C148.631 66.3509 148.649 66.3614 148.673 66.3614H150.927C150.953 66.3614 150.974 66.3535 150.992 66.3325C151.008 66.3142 151.016 66.2905 151.016 66.2643V64.2606L151.019 64.2632ZM155.799 64.2632C155.799 64.237 155.81 64.216 155.828 64.1976C155.846 64.1818 155.87 64.174 155.896 64.174H156.344C156.402 64.174 156.431 64.2028 156.431 64.2606V70.0798C156.431 70.1376 156.402 70.1665 156.344 70.1665H155.896C155.87 70.1665 155.849 70.1586 155.828 70.1429C155.81 70.1271 155.799 70.1061 155.799 70.0798V66.9943C155.799 66.9707 155.789 66.9601 155.765 66.9601H155.354C155.327 66.9601 155.306 66.9496 155.285 66.9313C155.267 66.9129 155.257 66.8892 155.257 66.863V66.4061C155.257 66.3824 155.246 66.3719 155.223 66.3719H154.748C154.722 66.3719 154.701 66.364 154.685 66.343C154.67 66.3247 154.662 66.301 154.662 66.2748V65.8257C154.662 65.8021 154.651 65.7916 154.628 65.7916H154.153C154.127 65.7916 154.106 65.7811 154.085 65.7627C154.067 65.7443 154.056 65.7207 154.056 65.6944V65.2375C154.056 65.2139 154.046 65.2034 154.022 65.2034H153.585C153.561 65.2034 153.55 65.2139 153.55 65.2375V70.0798C153.55 70.1061 153.543 70.1271 153.522 70.1429C153.503 70.1586 153.48 70.1665 153.453 70.1665H153.005C152.948 70.1665 152.919 70.1376 152.919 70.0798V64.2606C152.919 64.2028 152.948 64.174 153.005 64.174H153.443C153.501 64.174 153.529 64.2028 153.529 64.2606V64.6729C153.529 64.6965 153.54 64.707 153.564 64.707H153.991C154.017 64.707 154.041 64.7149 154.059 64.7333C154.077 64.7517 154.088 64.7701 154.088 64.7963V65.164C154.088 65.1876 154.098 65.1981 154.122 65.1981H154.596C154.622 65.1981 154.643 65.2086 154.662 65.227C154.677 65.2454 154.685 65.269 154.685 65.2953V65.7522C154.685 65.7758 154.696 65.7863 154.719 65.7863L155.194 65.7784C155.22 65.7784 155.244 65.7863 155.262 65.8047C155.28 65.8231 155.291 65.8415 155.291 65.8651V66.3299C155.291 66.3535 155.301 66.364 155.325 66.364H155.762C155.786 66.364 155.797 66.3535 155.797 66.3299V64.2554L155.799 64.2632ZM157.838 70.1691C157.794 70.1691 157.76 70.1534 157.731 70.1245C157.702 70.0956 157.689 70.0588 157.689 70.0194V64.7543C157.689 64.6992 157.707 64.6493 157.741 64.6046L158.029 64.2265C158.064 64.1923 158.106 64.174 158.153 64.174H161.24C161.285 64.174 161.319 64.1897 161.348 64.2186C161.376 64.2475 161.389 64.2842 161.389 64.3236V69.5888C161.389 69.6439 161.371 69.6938 161.337 69.7385L161.049 70.1166C161.015 70.1507 160.973 70.1691 160.926 70.1691H157.838ZM160.758 64.7727C160.758 64.7385 160.739 64.7202 160.705 64.7202H158.373C158.339 64.7202 158.32 64.7385 158.32 64.7727V69.5704C158.32 69.6045 158.339 69.6229 158.373 69.6229H160.705C160.739 69.6229 160.758 69.6045 160.758 69.5704V64.7727ZM162.647 64.2632C162.647 64.2055 162.676 64.1766 162.734 64.1766H163.182C163.208 64.1766 163.232 64.1845 163.25 64.2002C163.269 64.216 163.279 64.237 163.279 64.2659V69.5914C163.279 69.615 163.29 69.6255 163.313 69.6255H164.838C164.896 69.6255 164.925 69.6544 164.925 69.7122V70.0825C164.925 70.1402 164.896 70.1691 164.838 70.1691H163.111C163.064 70.1691 163.025 70.1507 162.988 70.1166L162.7 69.7385C162.666 69.6938 162.647 69.6439 162.647 69.5888V64.2632ZM165.858 70.1691C165.813 70.1691 165.779 70.1534 165.751 70.1245C165.722 70.0956 165.709 70.0588 165.709 70.0194V64.7543C165.709 64.6992 165.727 64.6493 165.761 64.6046L166.049 64.2265C166.083 64.1923 166.125 64.174 166.172 64.174H169.26C169.304 64.174 169.338 64.1897 169.367 64.2186C169.396 64.2475 169.409 64.2842 169.409 64.3236V69.5888C169.409 69.6439 169.391 69.6938 169.357 69.7385L169.069 70.1166C169.034 70.1507 168.993 70.1691 168.945 70.1691H165.858ZM168.778 64.7727C168.778 64.7385 168.759 64.7202 168.725 64.7202H166.393C166.359 64.7202 166.34 64.7385 166.34 64.7727V69.5704C166.34 69.6045 166.359 69.6229 166.393 69.6229H168.725C168.759 69.6229 168.778 69.6045 168.778 69.5704V64.7727ZM174.371 69.5888C174.371 69.6439 174.352 69.6938 174.318 69.7385L174.03 70.1166C173.996 70.1507 173.954 70.1691 173.907 70.1691H170.759C170.701 70.1691 170.673 70.1402 170.673 70.0825V64.7569C170.673 64.7018 170.691 64.6519 170.725 64.6072L171.013 64.2291C171.047 64.195 171.089 64.1766 171.136 64.1766H173.251C173.278 64.1766 173.301 64.1845 173.32 64.2002C173.338 64.216 173.348 64.237 173.348 64.2632V64.6335C173.348 64.6598 173.341 64.6808 173.32 64.6965C173.301 64.7123 173.278 64.7202 173.251 64.7202H171.338C171.315 64.7202 171.304 64.7307 171.304 64.7543V69.5888C171.304 69.6124 171.315 69.6229 171.338 69.6229H173.707C173.731 69.6229 173.742 69.6124 173.742 69.5888L173.736 66.6083L173.388 66.8814C173.359 66.905 173.33 66.9155 173.301 66.9155H172.803C172.777 66.9155 172.756 66.905 172.74 66.8866C172.725 66.8682 172.717 66.8446 172.717 66.8183V66.4665C172.717 66.4402 172.725 66.4166 172.74 66.3982C172.756 66.3798 172.777 66.3693 172.803 66.3693H174.224C174.268 66.3693 174.302 66.3851 174.331 66.4139C174.36 66.4428 174.373 66.4796 174.373 66.519V69.5862L174.371 69.5888ZM175.288 64.258C175.288 64.2344 175.298 64.2133 175.317 64.1923C175.335 64.174 175.356 64.1635 175.38 64.1635H176.221C176.247 64.1635 176.268 64.1713 176.286 64.1923C176.305 64.2107 176.313 64.2344 176.313 64.258V64.6151C176.313 64.6414 176.305 64.6624 176.286 64.6808C176.268 64.6992 176.247 64.707 176.221 64.707H176.121V69.6203H176.221C176.247 69.6203 176.268 69.6282 176.286 69.6492C176.305 69.6676 176.313 69.6912 176.313 69.7148V70.072C176.313 70.0982 176.305 70.1192 176.286 70.1376C176.268 70.156 176.247 70.1639 176.221 70.1639H175.38C175.356 70.1639 175.335 70.156 175.317 70.1376C175.298 70.1192 175.288 70.0982 175.288 70.072V69.7148C175.288 69.6912 175.298 69.6702 175.317 69.6492C175.335 69.6308 175.359 69.6203 175.382 69.6203H175.49V64.707H175.382C175.359 64.707 175.338 64.6992 175.317 64.6808C175.298 64.6624 175.288 64.6414 175.288 64.6151V64.258ZM177.484 64.7543C177.484 64.6992 177.502 64.6493 177.537 64.6046L177.825 64.2265C177.859 64.1923 177.901 64.174 177.948 64.174H180.063C180.089 64.174 180.113 64.1818 180.131 64.1976C180.15 64.2133 180.16 64.2344 180.16 64.2606V64.6309C180.16 64.6571 180.152 64.6782 180.131 64.6939C180.113 64.7097 180.089 64.7175 180.063 64.7175H178.15C178.126 64.7175 178.116 64.728 178.116 64.7517V66.6765L178.467 66.4034C178.491 66.3798 178.519 66.3693 178.553 66.3693H179.044C179.07 66.3693 179.091 66.3772 179.109 66.3982C179.125 66.4166 179.133 66.4402 179.133 66.4665V66.8183C179.133 66.8446 179.125 66.8656 179.109 66.8866C179.093 66.905 179.07 66.9155 179.044 66.9155H178.202C178.145 66.9155 178.116 66.9444 178.116 67.0022V69.5862C178.116 69.6098 178.126 69.6203 178.15 69.6203H180.21C180.236 69.6203 180.26 69.6282 180.278 69.6439C180.296 69.6597 180.307 69.6807 180.307 69.7069V70.0772C180.307 70.1035 180.299 70.1245 180.278 70.1402C180.26 70.156 180.236 70.1639 180.21 70.1639H177.571C177.513 70.1639 177.484 70.135 177.484 70.0772V64.7517V64.7543ZM180.794 70.1691C180.768 70.1691 180.747 70.1613 180.726 70.1455C180.708 70.1297 180.697 70.1087 180.697 70.0825V69.7122C180.697 69.6859 180.708 69.6649 180.726 69.6492C180.744 69.6334 180.768 69.6255 180.794 69.6255H183.334C183.357 69.6255 183.368 69.615 183.368 69.5914V66.9628C183.368 66.947 183.363 66.9339 183.35 66.926C183.339 66.9155 183.323 66.9103 183.305 66.9103H180.993C180.949 66.9103 180.915 66.8945 180.886 66.8656C180.857 66.8367 180.844 66.8 180.844 66.7606V64.7543C180.844 64.6992 180.862 64.6493 180.896 64.6072L181.185 64.2291C181.219 64.195 181.261 64.1766 181.308 64.1766H183.276C183.3 64.1766 183.321 64.1845 183.337 64.2002C183.355 64.216 183.363 64.237 183.363 64.2632V64.6335C183.363 64.6571 183.355 64.6782 183.337 64.6939C183.318 64.7123 183.3 64.7202 183.276 64.7202H181.51C181.486 64.7202 181.476 64.7307 181.476 64.7543V66.301C181.476 66.3194 181.481 66.3325 181.491 66.3457C181.502 66.3562 181.512 66.364 181.528 66.364H183.848C183.889 66.364 183.924 66.3798 183.952 66.4061C183.981 66.4349 183.997 66.4691 183.997 66.5137V69.5888C183.997 69.6439 183.979 69.6938 183.945 69.7385L183.656 70.1166C183.622 70.1507 183.58 70.1691 183.533 70.1691H180.792H180.794Z" fill="#909090"/>
    <path fill-rule="evenodd" clip-rule="evenodd" d="M25.2568 10.9186L35.6564 0.758545L46.056 10.9186L35.6564 28.9592L25.2568 10.9186ZM35.6564 55.0407L25.2568 73.0814L35.6564 83.2414L46.056 73.0814L35.6564 55.0407Z" fill="#6E5DE7"/>
    <path fill-rule="evenodd" clip-rule="evenodd" d="M35.6564 55.0406L25.2568 73.0813L35.6564 83.2413L46.056 73.0813L35.6564 55.0406Z" fill="#6E5DE7"/>
    <path fill-rule="evenodd" clip-rule="evenodd" d="M25.2568 10.9186L35.6564 0.758545L46.056 10.9186L35.6564 28.9592L25.2568 10.9186Z" fill="#6E5DE7"/>
    <path fill-rule="evenodd" clip-rule="evenodd" d="M24.3897 48.5204H3.5932L0 62.622L13.977 66.561L24.3897 48.5204Z" fill="#6E5DE7"/>
    <path fill-rule="evenodd" clip-rule="evenodd" d="M57.3339 17.439L71.3135 21.3806L67.7203 35.4796H46.9238L57.3339 17.439Z" fill="#6E5DE7"/>
    <path fill-rule="evenodd" clip-rule="evenodd" d="M3.5932 35.4795L0 21.3805L13.977 17.4415L24.3766 35.4822H3.5932V35.4795ZM46.937 48.5203L57.3365 66.5609L71.3136 62.6219L67.7204 48.5203H46.937Z" fill="#6E5DE7"/>
  </g>
  <defs>
    <clipPath id="clip0_501_341">
      <rect width="184" height="82.4828" fill="white" transform="translate(0 0.758545)"/>
    </clipPath>
  </defs>
</svg>